<svg id="Layer_1" data-name="Layer 1" xmlns="http://www.w3.org/2000/svg" viewBox="0 0 383.56 613.06"><defs><style>.cls-1{fill:#fff;}.cls-2{fill:none;}</style></defs><title>1840</title><path class="cls-1" d="M219.78,95.35s13.88-29.43,43.75-31.26,85.33-.61,125.86,19.2S429,106.76,429,106.76s-25.9,66.13-29.25,82S379,280.16,379,280.16s-9.75,71.92-10.36,75.58-8.53,50.29-8.84,53-2.74,13.71-4.57,17.37-1.3,28.25-2.06,30.54,1.9,17.49,5.33,22.43,27,32.71,32.32,36.89,31.94,32.71,41.45,36.13,30.05,9.51,36.13,3S481.74,535.4,484.78,535s33.09,40.31,33.47,55.14c3.8,8,7.22,11,6.84,16.73s2.67,19.4-8.74,28.14a183.32,183.32,0,0,1-73,33.85c-36.13,7.61-88.61,12.55-118.65,0S240.63,620.2,233.79,613s-13.69-14.07-13.69-14.07l-2.89,21.29s-41.23-11.79-55.3-25.48-21.29-26.24-20.15-36.5,6.23-25.7,6.23-25.7,5.53-29.92,10.13-42.8,13.34-46,16.11-50.63,2.3-6.9,1.84-12,4.14-18.87,4.6-21.63-5.52-32.68.46-52,12.42-36.36,12.42-40-1.84-17,1.38-35.9,7.37-37.28,8.29-52.46,2.76-35.44,6-50.17,9.48-60.1,8.75-66.27S219.78,95.35,219.78,95.35Z" transform="translate(-141.64 -63.49)"/><path class="cls-2" d="M220.25,104.3s22.45-34,67.8-28.82,47.49,4.66,78.2,14.14,52.68,18.94,58.11,25.08" transform="translate(-141.64 -63.49)"/><path class="cls-2" d="M220.25,100.74s21.41-36.52,62.44-31.85c14.14.93,37.76,2.64,46,3.88s38.7,8.86,47.87,12.9,39.68,16.63,47.81,22.38" transform="translate(-141.64 -63.49)"/><path class="cls-2" d="M165.05,467.42S181.19,492.7,190.57,501s49.7,34.75,77.51,41,60.47,14.94,69.16,18.42,22.59,18.07,40.31,22.24,53.52,14.25,69.16,5.56,21.55-18.07,29.54-31.62S484.78,535,484.78,535" transform="translate(-141.64 -63.49)"/><path class="cls-2" d="M168.79,460.2s16,28.4,40.25,44.39,54.58,29.49,83.53,35.28,40.24,1.1,56.78,13.23,26.47,20.68,33.09,24,38.31,9.37,46,8.82,18.5-1.57,26.47-5.79,16.83-16.06,16.83-16.06" transform="translate(-141.64 -63.49)"/><path class="cls-2" d="M443.36,582.05s-56.24-1.38-61.2-17.64c0-2.48,3.86-1.38,11.58-10.2s8.27-14.34,10.2-17.09,9.92,17.09,28.39,24,24.54,7.72,31.43,4.13a69.05,69.05,0,0,0,12.49-8.58" transform="translate(-141.64 -63.49)"/><path class="cls-2" d="M339.31,534.27c3.32-2.28,2.45-9.27,5.07-18.55s-8.4-14.17-15-24.31,1.4-21.52,6.47-25.89,13.82-5.32,13.82-5.32" transform="translate(-141.64 -63.49)"/><path class="cls-2" d="M343.86,463.94s-7.53,6.12-8.75,13.3,3,10.32,8.05,15.92,11.37,8.39,11,19.07-2.63,23.89-3.32,24.62" transform="translate(-141.64 -63.49)"/><path class="cls-2" d="M311,541.79s21.87-7.07,34.46-4.94,26.77,7,32.54,4.24,12.95-5.77,11-16.44S383.84,509,383.84,509" transform="translate(-141.64 -63.49)"/><path class="cls-1" d="M147.43,534.27s9.94,21.88,30.42,32,43.2,19.13,54.23,29.7,53.1,40.28,62.78,44.33,44.77,26.55,80.78,23.18,89.78-14.18,99.23-21.15c9.91-4.73,39.6-16.88,42.75-30.38s3.48-16.39,3.48-16.39,4.27,5,4.09,13.91S522,634.63,500.41,646s-53.62,22.8-68.75,25.15-66.3,7.93-84.64,3.6-23.15-5.24-37.09-12.84-45.07-26.1-56.79-34.39-33-28.59-33-28.59l-2.89,21.29s-65.09-17.46-69.78-42.81C142.75,567.4,141.32,568.87,147.43,534.27Z" transform="translate(-141.64 -63.49)"/></svg>