<?xml version="1.0" encoding="utf-8"?>
<!-- Generator: Adobe Illustrator 24.0.3, SVG Export Plug-In . SVG Version: 6.00 Build 0)  -->
<svg version="1.1" id="Layer_1" xmlns="http://www.w3.org/2000/svg" xmlns:xlink="http://www.w3.org/1999/xlink" x="0px" y="0px"
	 viewBox="0 0 383.6 613.1" style="enable-background:new 0 0 383.6 613.1;" xml:space="preserve">
<style type="text/css">
	.st0{fill:#FFFFFF;}
</style>
<title>1840</title>
<path class="st0" d="M78.1,31.9c0,0,13.9-29.4,43.8-31.3S207.2,0,247.8,19.8s39.6,23.5,39.6,23.5s-25.9,66.1-29.2,82
	c-3.3,15.9-20.7,91.4-20.7,91.4s-9.8,71.9-10.4,75.6s-8.5,50.3-8.8,53s-2.7,13.7-4.6,17.4s-1.3,28.2-2.1,30.5s1.9,17.5,5.3,22.4
	s27,32.7,32.3,36.9s31.9,32.7,41.4,36.1s30,9.5,36.1,3s13.3-19.7,16.4-20.1c3-0.4,33.1,40.3,33.5,55.1c3.8,8,7.2,11,6.8,16.7
	s2.7,19.4-8.7,28.1c-21.5,16.6-46.5,28.1-73,33.8c-36.1,7.6-88.6,12.5-118.6,0S99,556.7,92.1,549.5s-13.7-14.1-13.7-14.1l-2.9,21.3
	c0,0-41.2-11.8-55.3-25.5S-1,505,0.1,494.8S6.3,469,6.3,469s5.5-29.9,10.1-42.8s13.3-46,16.1-50.6s2.3-6.9,1.8-12s4.1-18.9,4.6-21.6
	s-5.5-32.7,0.5-52s12.4-36.4,12.4-40s-1.8-17,1.4-35.9s7.4-37.3,8.3-52.5s2.8-35.4,6-50.2s9.5-60.1,8.8-66.3S78.1,31.9,78.1,31.9z"
	/>
</svg>
