<?xml version="1.0" encoding="utf-8"?>
<!-- Generator: Adobe Illustrator 24.0.3, SVG Export Plug-In . SVG Version: 6.00 Build 0)  -->
<svg version="1.1" id="Layer_1" xmlns="http://www.w3.org/2000/svg" xmlns:xlink="http://www.w3.org/1999/xlink" x="0px" y="0px"
	 viewBox="0 0 683.33 509.88" style="enable-background:new 0 0 464.6 428.1;" xml:space="preserve">
<style type="text/css">
	.st0{fill:#FFFFFF;}
</style>
<title>1928</title>
<path class="cls-1" d="M694.12,392.36s-2.13-3.65-4.87,4.26c-.19.54-.37,1.13-.54,1.76-2-4.94-4.43-10.62-6.86-16.41-4.94-11.76-23.17-13.91-25.78-14.16q-3.33-6.48-7.07-12.75c-3.54-10.55-19.24-19.09-33.66-24.88h0s-12.85-10.36-19-18.69-27.89-9.77-41.65-10.5c-13.44-.71-23.45,4.79-38.76,5.38,2.38-1.57,4.76-3.14,5.6-3.52,1.39-.63,13-1.9,15.18-.76s-.51-6.58-13.66-4.68c-10.23,1.48-19.16,4.71-23.69,7.21-7.5-2.11-13.39-5.85-19.28-10.15-9.41-6.88-35.13-23.18-48.53-30.79a18.16,18.16,0,0,1-2.45-1.82c.75.25,1.51.49,2.25.75,8.5,3,3.5-2.26,5-8.77s3.5-6.51-1.76-16.28S403.8,212.27,400.29,210c-3.32-2.14-27.94-15.92-30.57-17.39,2.13-2.48,3.11-4.43,2.54-5.12-1.78-2.14-13.93-36.46-15-41.82s-13.22-3.92-12.15-3.57,7.51,4.29-1.43,10c-2.85,1.82-6,3.82-9.55,5.83.72-4.85,2.4-12.5,6.18-16.82a19.68,19.68,0,0,1,2.12-2.08c4.09-.69,11.06,1.35,15.95,2.19,6.37,1.09,11.32,9.27,19.1,11s4.61-4.24-5.3-16.27a113.13,113.13,0,0,0-11.85-11.35l.39-.56c7.91-11.66,8.33-17.92,7.5-25.83s.83-10-7.92-13.33c-6.72-2.56-8.53-4.86-13.53-4.67a80.16,80.16,0,0,0-9.3-5.4c-3.2-1.34-9.33,3.73-10.93,7.73a11.91,11.91,0,0,1-2.27,2.89c-6.78-2.91-16.32-5-19.06-4.21l-.74.22C289.05,73,229,46.9,190,32c-42.41-16.24-63.67-8.48-76.41-4.24C103.79,31,95.45,39.51,92.14,43.24c-9.82-.64-16.92.33-19.94,2,0,0,.34,5.25.74,11.65a2.88,2.88,0,0,0-.8.17c-4.76,1.64-20,9.32-21.27,20.65s-4.75,33.83-4.94,38.22c-.07,1.58-.25,3.81-.52,6.23A49.62,49.62,0,0,0,27.92,145a20.78,20.78,0,0,0-5.32,5.42c-3.88,6.21-1.93,8.54-1.55,25.63.35,15.68,1,40.82,4.4,50.57-.05,3.3-.16,5.92-.35,7.53-1.25,10.8-.18,37.34,7.7,56a.61.61,0,0,1,.05.12l-.11-.12a94.8,94.8,0,0,0,.91,27.07c-.31.71-12.17,28.65,5.35,52.12,17.75,23.77,62,48.06,68.84,50.88s23.83,11.7,31.64,7.49,11.8-10.6,15-10.2a31.63,31.63,0,0,1,14.81,5.2c6.4,4.2,27.81,16.61,36.61,23.61s39.73,32.48,46.26,36.1,83,35.9,91.89,37.87,68,11.53,79.34,11.53,38.92.67,55.64-1,27.13,0,35.37-1.21L532.6,527l-.3-1a3.81,3.81,0,0,0,.87.74c6.38,3.65,83.67-14.61,99.19-24s47.15-28,54.46-39.85,16.42-34.69,16.73-38S694.12,392.36,694.12,392.36ZM350.31,115.3c0,.29-.08.56-.12.84-2.37-1.93-4.81-3.89-7.27-5.84C348.72,110.56,351,108.58,350.31,115.3Zm-280.79-8a54.82,54.82,0,0,0-4.94,10.51c-1.82-3-3.74-7.09-3.46-7.94.15-.46.72-6.19,1.62-13l2.39.93C70.44,104,71.9,103.66,69.52,107.32Zm2.33-38.19c.59-.73,1.14-1.48,1.7-2.23,0,.68.08,1.34.12,2A10.7,10.7,0,0,0,71.85,69.13Zm2.7,24.14-.64-.22s.27-1,.67-2.48Q74.58,91.91,74.55,93.27ZM174.73,370.16c.25,0,.47,0,.66,0l.33.48Zm37.05,20.23c5.48,3,9.8,5.58,10.7,6.57l.12.13C219.18,394.92,215.55,392.67,211.78,390.39ZM314.16,138.66,312,136.29l3.27.84C314.94,137.56,314.58,138.08,314.16,138.66Zm9.68,10.47c.27-.53.55-1.06.82-1.61l4.44,7.35Zm21.34,189c-1.74-1.92-6.66-6.71-13.25-13a241.89,241.89,0,0,1,19,18.61l0,.38C348.45,341.63,346.43,339.54,345.18,338.15Zm77.88-94.84c-2.75-.75-12-8.52-18.28-14.53-4.24-4.05-13.78-9.46-20.48-13.41-5.76-6.27-11.74-12.83-17.79-19.46a41.07,41.07,0,0,0,3.1-3.17c.81,1.6,5.11,10,7.39,12.26,2.52,2.47,19.76,12.76,22,15.27s9,5.5,14.52,8.51,11,10,12.53,12.78S425.81,244.06,423.06,243.31Z" transform="translate(-20.22 -22.11)"/></svg>
