<?xml version="1.0" encoding="utf-8"?>
<!-- Generator: Adobe Illustrator 24.0.3, SVG Export Plug-In . SVG Version: 6.00 Build 0)  -->
<svg version="1.1" id="Layer_1" xmlns="http://www.w3.org/2000/svg" xmlns:xlink="http://www.w3.org/1999/xlink" x="0px" y="0px"
	 viewBox="0 0 342.8 251.4" style="enable-background:new 0 0 342.8 251.4;" xml:space="preserve">
<style type="text/css">
	.st0{fill:#FFFFFF;}
</style>
<title>1928</title>
<path class="st0" d="M302.9,173.8c0,0-0.9-1.5-2,1.7c-0.1,0.2-0.1,0.5-0.2,0.7c-0.8-2-1.8-4.3-2.8-6.6c-2-4.7-9.3-5.6-10.4-5.7
	c-0.9-1.7-1.8-3.4-2.8-5.1c-1.4-4.2-7.7-7.7-13.5-10l0,0c0,0-5.2-4.2-7.6-7.5c-2.5-3.3-11.2-3.9-16.7-4.2c-5.4-0.3-9.4,1.9-15.6,2.2
	c1-0.6,1.9-1.3,2.2-1.4c0.6-0.3,5.2-0.8,6.1-0.3c0.9,0.5-0.2-2.6-5.5-1.9c-4.1,0.6-7.7,1.9-9.5,2.9c-3-0.8-5.4-2.3-7.7-4.1
	c-3.8-2.8-14.1-9.3-19.5-12.4c-0.3-0.2-0.7-0.5-1-0.7c0.3,0.1,0.6,0.2,0.9,0.3c3.4,1.2,1.4-0.9,2-3.5s1.4-2.6-0.7-6.5
	c-2.1-3.9-12.4-10.2-13.8-11.1c-1.3-0.9-11.2-6.4-12.3-7c0.9-1,1.2-1.8,1-2.1c-0.7-0.9-5.6-14.6-6-16.8s-5.3-1.6-4.9-1.4
	c0.4,0.1,3,1.7-0.6,4c-1.1,0.7-2.4,1.5-3.8,2.3c0.3-1.9,1-5,2.5-6.8c0.3-0.3,0.5-0.6,0.9-0.8c1.6-0.3,4.4,0.5,6.4,0.9
	c2.6,0.4,4.5,3.7,7.7,4.4c3.1,0.7,1.9-1.7-2.1-6.5c-1.5-1.6-3.1-3.2-4.8-4.6L169,66c3.2-4.7,3.3-7.2,3-10.4s0.3-4-3.2-5.4
	c-2.7-1-3.4-2-5.4-1.9c-1.2-0.8-2.4-1.5-3.7-2.2c-1.3-0.5-3.7,1.5-4.4,3.1c-0.2,0.4-0.5,0.8-0.9,1.2c-2.7-1.2-6.6-2-7.7-1.7
	l-0.3,0.1c-6.2-3.4-30.3-13.9-46-19.9c-17-6.5-25.6-3.4-30.7-1.7c-3.9,1.3-7.3,4.7-8.6,6.2c-3.9-0.3-6.8,0.1-8,0.8
	c0,0,0.1,2.1,0.3,4.7c-0.1,0-0.2,0-0.3,0.1c-1.9,0.7-8,3.7-8.5,8.3C44,52,42.6,61,42.5,62.8c0,0.6-0.1,1.5-0.2,2.5
	c-3.2,2.3-5.6,5.5-7,9.2c-0.8,0.6-1.6,1.3-2.1,2.2c-1.6,2.5-0.8,3.4-0.6,10.3c0.1,6.3,0.4,16.4,1.8,20.3c0,1.3-0.1,2.4-0.1,3
	c-0.5,4.3-0.1,15,3.1,22.5l0,0l0,0c-0.4,3.6-0.3,7.3,0.4,10.9c-0.1,0.3-4.9,11.5,2.1,20.9c7.1,9.5,24.9,19.3,27.6,20.4
	c2.7,1.1,9.6,4.7,12.7,3s4.7-4.3,6-4.1c2.1,0.2,4.2,0.9,5.9,2.1c2.6,1.7,11.2,6.7,14.7,9.5s16,13,18.6,14.5s33.3,14.4,36.9,15.2
	c3.6,0.8,27.3,4.6,31.9,4.6s15.6,0.3,22.3-0.4s10.9,0,14.2-0.5l7.3-1l-0.1-0.4c0.1,0.1,0.2,0.2,0.3,0.3c2.6,1.5,33.6-5.9,39.8-9.6
	s18.9-11.2,21.9-16s6.6-13.9,6.7-15.3C306.8,185.6,302.9,173.8,302.9,173.8z M164.8,62.5c0,0.1,0,0.2,0,0.3c-1-0.8-1.9-1.6-2.9-2.3
	C164.1,60.6,165.1,59.8,164.8,62.5z M52,59.3c-0.8,1.3-1.5,2.7-2,4.2c-0.7-1.2-1.5-2.8-1.4-3.2c0.1-0.2,0.3-2.5,0.7-5.2l1,0.4
	C52.4,58,53,57.9,52,59.3L52,59.3z M52.9,44c0.2-0.3,0.5-0.6,0.7-0.9c0,0.3,0,0.5,0,0.8C53.4,43.9,53.2,43.9,52.9,44L52.9,44z
	 M54,53.7l-0.3-0.1c0,0,0.1-0.4,0.3-1C54,53,54,53.3,54,53.7L54,53.7z M94.3,164.9c0.1,0,0.2,0,0.3,0l0.1,0.2L94.3,164.9z
	 M109.1,173c2.2,1.2,3.9,2.2,4.3,2.6v0.1C112.1,174.8,110.7,173.9,109.1,173z M150.3,71.9l-0.9-1l1.3,0.3
	C150.6,71.5,150.4,71.7,150.3,71.9z M154.2,76.1c0.1-0.2,0.2-0.4,0.3-0.6l1.8,3L154.2,76.1z M162.7,152c-0.7-0.8-2.7-2.7-5.3-5.2
	c2.7,2.3,5.2,4.8,7.6,7.5v0.2C164,153.4,163.2,152.6,162.7,152L162.7,152z M194,113.9c-1.1-0.3-4.8-3.4-7.3-5.8
	c-1.7-1.6-5.5-3.8-8.2-5.4c-2.3-2.5-4.7-5.2-7.1-7.8c0.4-0.4,0.9-0.8,1.2-1.3c0.3,0.6,2.1,4,3,4.9c1,1,7.9,5.1,8.8,6.1
	c0.9,1,3.6,2.2,5.8,3.4s4.4,4,5,5.1C195.8,114.4,195.1,114.3,194,113.9L194,113.9z"/>
</svg>
