<svg id="Layer_1" data-name="Layer 1" xmlns="http://www.w3.org/2000/svg" viewBox="0 0 724.36 560"><defs><style>.cls-1{fill:#fff;}.cls-2,.cls-3{fill:none;}.cls-3{opacity:0.76;}</style></defs><title>1928</title><path class="cls-1" d="M182.88,375.17s-9.25-1.26-9.67-12.61,13.46-53.39,21.86-62.64,27.75-36.57,37.42-39.51,28.49-.33,32.69,3,72.4,66.33,80,74.74,42.71,42.38,48.76,42c5.85-.34,88.88,64.44,92.07,76.93,1.85,7.25,17.82,14.21,17.82,14.21S439,478.56,444.42,477c0,0-46.89,3.31-50.25,1.35s-47.2-4.82-52.67-8.6-41.25-11.92-47.56-16.12S254.31,420.12,251,421.89c-1.92,1-24.56-20.57-28.52-24.93C219.64,393.85,182.88,375.17,182.88,375.17Z"/><path class="cls-1" d="M655.75,367.78s20.78,1.52,26.1,14.19,10.65,24.83,11.41,29.9-10.9,40-25.85,45.36-63.6,42.31-76.52,42.06S531.34,511.2,527.54,512s-35,10.14-71.71,9.63-64.62-1.27-78.05-3.3-78-16.09-110-37.68-57.53-39.95-57.53-39.95-35.47-24.77-65.43-36.82S77.94,375,66,361.18c-11.76-13.67-24.1-14.66-30-33.87a95,95,0,0,1-3.26-37.13s46.11,49.07,65.76,52.71,33.15,11.88,61.64,21.31,80.75,44.19,86.59,49.35,50.09,38,55,40.21,40.26,16.39,61,18.38,34.69,6.42,61.93,4.65,52.06-2.66,59.37-4.65,14.62-4.43,17.5-5.54,28.35-3.76,50.06-15.28,50.5-19.05,50.5-19.05,40.1-19.08,47.41-26.38,13.73-16.15,12.4-21.91S655.75,367.78,655.75,367.78Z"/><path class="cls-1" d="M33.66,317.22S21.25,345.6,39,369.37s62,48.06,68.84,50.88,23.83,11.7,31.64,7.49,11.8-10.6,15-10.2a31.68,31.68,0,0,1,14.81,5.2c6.4,4.2,27.81,16.61,36.61,23.61s39.73,32.48,46.26,36.1,83,35.9,91.89,37.87,68,11.53,79.34,11.53,38.92.67,55.64-1,27.13,0,35.37-1.21L532.6,527l-4.6-15s-69.41,7.68-105.27,5-81.21-7.66-94.3-13.47S266.32,477.37,253,467.92s-54.51-36.19-54.51-36.19-23.26-18.41-48.21-27.62-45.8-21.08-58.15-29.8S43.71,350.76,33.66,317.22Z"/><path class="cls-1" d="M520.4,478.7s6.39,44.42,12.77,48.07,83.67-14.61,99.19-24,47.15-28,54.46-39.85,16.42-34.69,16.73-38-9.43-32.56-9.43-32.56-2.13-3.65-4.87,4.26-4.26,26.78-3.65,28.6-10.35-.61-14.3,2.74-20.69,24.95-29.21,35.29-31,22.21-38.33,24.64-8.82,2.44-8.82,2.44S586.72,465.62,587,462s-23.73,4-25.55,5.78-6.09,14.3-6.09,15.52-6.69-3.35-7.6-5.48-1.22-5.17-2.13-5.17S520.4,478.7,520.4,478.7Z"/><path class="cls-1" d="M425.66,484.09S424,496.18,425,501.48s3.24,18,3.24,18l51.3-1s-4.64-18.25-4.21-23.11,2.16-11.24,2.16-12S425.66,484.09,425.66,484.09Z"/><path class="cls-1" d="M90.61,45.05s10.26-13.09,23-17.33,34-12,76.41,4.24S299.66,77.59,307.44,83.25s54.83,40.68,64.74,52.71,13.08,18,5.3,16.27-12.73-9.91-19.1-11-16.27-4.24-18.75-.71-43.15-8.49-43.15-8.49L164.54,87.31l-81-31.65Z"/><path class="cls-1" d="M532.91,323s48-3.7,61.21,0S643.4,338.36,649,355.06A220.15,220.15,0,0,1,660.09,376c2.65,5.83,5.3,14.31-1.05,22.26s-23.85,23.32-32.6,26.23-16.43,6.1-19.08,7.69-14.83,6.62-20.13,8.21-33.39,14-37.1,14.84S548,391.36,530,368.57c-8.21-17-9.8-21.73-13.25-22S532.91,323,532.91,323Z"/><path class="cls-1" d="M72.2,45.22c6.13-3.35,29-3.9,57.46,6.14S253.53,99.9,263.57,103.8s17.29,6.7,25.66,10S418.16,256.07,431.56,263.68s39.12,23.91,48.53,30.79,18.84,12.31,34.77,11.95,26.08-6.16,39.84-5.43,35.5,2.17,41.65,10.5,19,18.69,19,18.69-83.47-2.39-88.18.87-7.65,12.29-3.3,18.09,15.77,29.14,18,32.76,10.15,64,9.79,69.42-48,19.17-57.76,16.27S463.43,441.15,458,432.82s-30.43-28.25-39.84-35.13-38.76-24.26-48.54-34-26.07-29-38.39-39.12S299,297.37,286,284.33s-22.46-18.47-32.6-23.55-33,8.7-39.11,15.94-28.74,46.53-30.91,55.58-10,33.52-7.49,36.78-13.76-1.45-21-6.16-48-9.38-74.93-28.87S40.68,308.84,32.8,290.18s-8.95-45.2-7.7-56-.85-66.92-.44-74.8,3.75-18.49,10.39-27.2S52.46,116.86,55,117.28s8.71,6.63,14.92-2.07,4.57-30.27,4.15-39S72.2,45.22,72.2,45.22Z"/><path class="cls-1" d="M110.17,217.33c4.82-2.65,8.2-6.51,16.39-5.78s17.36,3.85,19.29,5.78,12.77,20.73,12.77,20.73l-12.29,5.07s-7-19.29-10.61-21.7-7-2.89-11.81-1.45-11.57,5.55-11.57,5.55l-9.4-3.86Z"/><path class="cls-1" d="M33.48,142.26S21.05,151.58,29.2,159s82,54,83.12,54.76,12.81,13.21,12.81,13.21-14,9.71-15.92,12.43-16.7,23.69-17.09,28.35-14.76-2.33-21.75-7-39.72-24.47-43.94-31.85-5-35.73-5.38-52.82-2.33-19.42,1.55-25.63A20.63,20.63,0,0,1,33.48,142.26Z"/><path class="cls-1" d="M155,364.45s1.68,4.76-5.36-15.73c-7.81-22.71-16.08-50-10.72-62.19S116,277.24,116,277.24,92.4,288,93.47,291.18s1.79,20.73,5.36,25.73,6.47,29.2,10.4,32.06S151,366.6,155,364.45Z"/><path class="cls-2" d="M180.11,370s0-30.12,12.75-48.68,21.56-39,31.23-46.61c12.16-9.57,19.54-14.17,42,3.42s76.23,67.44,76.23,67.44,47.89,41,56.68,47.88,59.62,50.33,67.93,57.17,12.21,21,12.21,21"/><path class="cls-2" d="M296.08,251.12s31.21,26.33,34.13,31.21,43.41,40,52.67,51.21,39.5,30.72,55.6,38.52,36.57,15.12,46.32,32.19,17.07,62.91,17.07,62.91"/><path class="cls-2" d="M338.61,212S370.23,250.68,376.2,256s35.48,34.77,41.1,41.45S433.81,324.45,444,329s47.83,12.64,52,13,19.65,12.12,22.81,17.13,10.88,33.93,11.59,37.32,9,60,9,60l-8.29-56.57-43.68,9.82"/><path class="cls-1" d="M236.25,244.54s9.77,9,17.29,6.51,13.77-8.51,15.27-10.77.51-9.26,2.76-12,22.54-4.76,22.54-4.76-.25,16.28-3,19.54-12.78,16-16.79,17.28-7.51,7.72-14,3.36-8-4.61-15-6.36-9-6.27-9-6.27Z"/><path class="cls-1" d="M336.81,207.4s10,5.84,12.21,12.38,0,22.18,0,24.58-4.13,11.52-4.13,11.52l3.61,17s5.67-1.37,8.42-4.81,7.57-10.83,8.77-16.85,1.72-21.84-.86-27.85-10-14.1-13.08-17.37S336.81,207.4,336.81,207.4Z"/><path class="cls-1" d="M315.66,217.37s9.46,5,9.63,12.38,5.5,29.4,6.7,31.12,6.19,31.12,8.08,35.25,5.85,18.91,7.05,20.28,5.16,45.05,7.23,47.63,4.64,3.61,6,1.55a14,14,0,0,0,2.24-8.6c-.35-3.09-6-38.34-5.5-40.75s2.4-5.5,1.72-9.8-4.13-28.2-5-32.32-5.52-20.71-6.54-23.94-6-25.41-6.53-28.16-1.37-9.11-5.84-13.24S315.66,217.37,315.66,217.37Z"/><path class="cls-1" d="M399.19,266.82s18.05-3.79,21.5-3.14,4.75-.07,4.75-.07,11.38-7.29,0-11-24.48-3.71-28.33-3.71a43.29,43.29,0,0,0-8.59,1.16Z"/><path class="cls-1" d="M357.48,194s17,14.28,20,17,21,11.77,27.3,17.78,15.53,13.78,18.28,14.53,4.51,1,3-1.75-7-9.77-12.53-12.78-12.27-6-14.52-8.51S379.52,207.47,377,205s-7.52-12.52-7.52-12.52,27.3,15.27,30.81,17.53,29.05,17.78,34.31,27.55,3.26,9.77,1.76,16.28,3.5,11.77-5,8.77-18.54-4.76-23.55-9.52-16.78-11.27-22-17.78S372.26,226,369,221s-12-9.27-15.53-15.28S357.48,194,357.48,194Z"/><path class="cls-1" d="M339.48,109.88c8.33,1.67,11.66-2.5,10.83,5.42s-5.84,11.66-12.92,15.83-14.58,13.33-14.58,13.33l10.83,17.91s.84-14.58,6.67-21.25,12.5-5.41,20.41-17.07,8.33-17.92,7.5-25.83.83-10-7.92-13.33-9.16-6.25-19.16-3.75-12.91,7.5-12.91,7.5l-2.08,6.25Z"/><path class="cls-1" d="M43.43,289s15.37-29.31,41.46-37.17,77.21-32.17,77.21-32.17,46.47-18.23,74.35-27.16,48.61-19.31,67.55-23.24,30.74-11.44,39.68-17.15,2.5-9.65,1.43-10,11.08-1.79,12.15,3.57,13.22,39.68,15,41.82S360.83,204,344.39,208.61s-64.34,22.52-70.77,23.59-22.88,10-29,10.72-65.41,22.52-70.77,24.67-70.06,30-84,31.45S49.15,296.9,43.43,289Z"/><ellipse class="cls-1" cx="81.85" cy="226.95" rx="10.56" ry="6.53" transform="translate(-158.93 211.77) rotate(-66.56)"/><ellipse class="cls-1" cx="115.03" cy="307.42" rx="6.53" ry="10.56" transform="translate(-177.3 158.14) rotate(-42.43)"/><path class="cls-1" d="M240.61,255.88c-.49-2.2-14.21-59.75-14.69-62.93a9.74,9.74,0,0,0-7.84-8.32c-5.14-1-34.28,11.26-43.58,13s-28.16,8.82-28.16,8.82l-1.23,3.92c-1.22,3.91,2.21,12.73,2.21,12.73s12.48,51.66,16.16,56.32,54.6-12.74,67.09-15.71S241.1,258.08,240.61,255.88Zm-70.28,12.73c-.49-1.71-13.46-53.38-13.46-53.38,1.71-1.71,14.44-7.1,19.83-7.83s39.18-12.49,39.18-12.49l13,57.3S170.82,270.33,170.33,268.61Z"/><path class="cls-1" d="M216,201.42s9.88-3.65,12.89-3.22,2.47-3.44,5.15,10.52,7.41,34.37,7.95,36.41.43,1.61-5.48,2.37-10,2.57-10,2.79-9.45-40.17-9.77-44A18.82,18.82,0,0,0,216,201.42Z"/><path class="cls-1" d="M207.69,226.45s-.22-5.16,2.36-6.56,9.35-5.37,11-5.26a4.72,4.72,0,0,1,4,2.47c.54,1.4,1.07,3.33-1.07,4.19s-8.17,4.83-10.64,5.16S211.66,228.81,207.69,226.45Z"/><path class="cls-1" d="M510,349.14s18.6-28.1,28.5-29.69-4.75-3.16-11.88-4-23.74,14.65-26.91,22.17S510,349.14,510,349.14Z"/><path class="cls-1" d="M471.21,362.59s15,6.73,14.65-3.16-5.19-26.34-3.67-27.73,7.46-1.52,5.69-3.55-4.81-3.29-11-2.4-10.12,1-11.26,3.79-4.8,17.09,0,24.42S471.21,362.59,471.21,362.59Z"/><path class="cls-2" d="M353.26,204.5s46.42,61.27,53.84,69.93,34,29.09,43.94,35.28,25.54,15.47,50.83,11.76,58.72-13,71.1-13.62,22.28,4.34,26,11.14"/><path class="cls-2" d="M248.39,188.23s-7.74-25.56-6.58-33.3-5.27-20.52-.12-24.78"/><path class="cls-2" d="M73,50.39c6.58-1.16,16.26-3.1,28.65,0s32.53,10.06,51.5,17.42,50,21.3,60.79,24.39,43.75,15.88,51.5,18.59,22.45,5,26.71,8.9"/><path class="cls-1" d="M484.47,332.3s7.71-2.88,10.37-5.29,14-16.06,16.83-17.84,8.48-5.69,9.87-6.32,13-1.9,15.18-.76-.51-6.58-13.66-4.68-24.17,6.7-26.45,9.11-6.2,11.64-7.34,14.8S484.47,332.3,484.47,332.3Z"/><path class="cls-1" d="M449.93,331.44s11.13-1.77,16.32-5.44,14.8-12.52,18.22-14.29,11-.26,11.64-1.14.5-5.06-3.42-6.33-6.2-.13-7.34-1,1.65-2.28-4.55-1.9-13.16,3.29-17,6.71-8.6,11.38-10.62,12.65S449.93,331.44,449.93,331.44Z"/><path class="cls-1" d="M435.63,311.2s13.92,3.16,16.7,6.45,4.05,10.76,3.8,13.79.44,10.5,0,14.3a36.36,36.36,0,0,0,.13,7.72s-5.1,4.3-8.26,3.29-5.32-4.18-5.44-5.57-3.17-6.2-2.91-9.74,0-10.76,0-15.31-.64-7.72-1.9-9.11S435.63,311.2,435.63,311.2Z"/><path class="cls-1" d="M404.77,281.07l1.39.46c3.54,1.17,12.76,4.38,15.24,6.67,3.09,2.85,8,9.5,8.55,16.51s2.14,15.44,0,20-5.7,15-6.89,15.44-4.39,3.09-7.84,0-3.68-3.21-2.85-6.41,2.14-21,1.67-25.3-.72-16.87-3.21-20.31-5.53-6.84-5.53-6.84"/><path class="cls-1" d="M420.69,290.69s6.82-5.7,10.36-6.65,12.44-5.58,14.22-4,6.06,4.64,7.6,5.7,4,1.43,4.28,4.28.83,2.85-4.4,4-12.59,4.39-15.2,4.63a27,27,0,0,1-9.5,0C422.7,297.82,420.69,290.69,420.69,290.69Z"/><path class="cls-1" d="M379.36,301.26s1.18-10.81,1.9-16.51,3.92-17.22,1.18-24.22-3.32-12.71-5.22-13.54-5.7-5.47-5.7-5.47a65.51,65.51,0,0,1,7,0c2.62.24,12.36,1.55,14.73,7.37s5.46,11,5.23,16.74.95,16.27-1.07,23.75-3.45,12.24-5.47,14.38-5.22,3.92-6.05,3.68S379.83,307.32,379.36,301.26Z"/><path class="cls-1" d="M97.8,42.8s56.52-22.69,123.4,8,115,54.14,115,54.14l-15.13,21.89s-35-16.32-59.31-25.87-52.55-22.3-60.91-24.68S136.81,51.56,117.3,47.18Z"/><path class="cls-1" d="M215.1,184.64s8.8-31.73,16.26-36.53,15.46-12.79,25.33-15.73,21.86-2.93,30.39-3.46,23.2-1.34,29.86,0,9.6-14.67,9.6-14.67L322,111.59s-20,2.13-27.2,2.93-31.46,5.07-39.45,7.2-31.46,14.4-34.13,17.06-17.86,17.33-20.53,33.33-3.2,19.46-3.2,19.46Z"/><path class="cls-1" d="M248.42,186s1.34-26.93,6.94-34.39,18.13-20.53,18.13-20.53,21.06-21.86,24.52-24,26.93-20.53,28.53-24.53,7.73-9.07,10.93-7.73,9.6,5.6,9.6,5.6-5.87,16-11.2,19.72-9.06,6.14-13.86,11.47S305.74,129.45,301,134s-13.6,9.87-17.07,14.13-7.46,8-10.66,17.33-2.93,13.33-2.93,13.33Z"/><path class="cls-1" d="M301.75,82.26s-4.8.8-5.6,6.67,1.33,12.79,1.6,15.46,11.46,23.51,14.66,25.89a28.08,28.08,0,0,1,4.53,4s7.2,4.53,14.13-2.4,10.13-10.66,9.07-20.26-5.34-19.73-11.2-23.73-20.26-7.73-23.73-6.66Z"/><path class="cls-1" d="M305.74,95.33s11.47-.27,18.67,8,7.46,7.74,8.8,14.67a24.94,24.94,0,0,1-2.4,16.53c-2.14,4.26-6.14,13.86-9.6,19.19s-18.66,8.53-20.26,12.8-15.47,12-15.47,12h-9.33s1.07-9.07,6.93-12.53,18.09-8.27,21.84-14.4,8.82-12,10.42-14.66,8.27-28,5.07-30.13S305.74,95.33,305.74,95.33Z"/><path class="cls-3" d="M254.66,418s7.24-30.53,20.46-46.58,36.2-46.9,40.29-48.47"/><path class="cls-3" d="M219.41,391.58s20.78-49.1,40.92-68.61C272,307.86,278,296.85,285,296.53"/><path class="cls-3" d="M294,442.26s6.29-49.42,50.67-89.08"/><path class="cls-3" d="M372.06,376.79s-40,58.54-33.36,82.15"/><path class="cls-3" d="M400.39,395.36s-22,54.14-15.42,72.71"/><path class="cls-3" d="M436.9,423.37s-2.52,31.48,0,44.7"/><path class="cls-2" d="M507.24,467.16s-6.34-34.14-7.32-37.55S496,413,496,413l31.21-6.34,6.83,54.13"/><path class="cls-2" d="M75.32,61.62S76.86,55,93.13,58.13s51.11,12.39,61.56,17,41,19.74,50.33,24,49.57,19,58.86,20.52"/><path class="cls-2" d="M666.84,382.23s10.32,20.64-11.27,34.72-88.21,41.76-99.94,44.58-44.11,14.54-63.35,16.89-70.38,6.1-80.71,5.63-77.89-9.46-95.72-18.1-35.66-15.68-42.23-21.78-47.86-39.89-56.31-45.05"/><ellipse class="cls-1" cx="97.45" cy="272.78" rx="3.24" ry="1.87"/><ellipse class="cls-1" cx="130.76" cy="259.42" rx="2.95" ry="2.06"/><ellipse class="cls-1" cx="178.8" cy="235.35" rx="3.24" ry="2.55"/><path class="cls-1" d="M36.61,160s7.68,4,9.69,0,6.4-22.68,7.31-25.42,4.76-12.07,4.76-12.07.18,15.73,3.47,16.83,6.22-2.2,6.22-4.21,0-12.25-2-15-5.3-9.15-4.94-10.24,3.11-32.19,7-36.39a88.28,88.28,0,0,0,6.4-7.86s2.38-10.24-2.38-8.6S52.15,66.36,50.87,77.69s-4.75,33.83-4.94,38.22-1.28,13.9-2.56,18.29-7.68,14.26-8,17.91A20,20,0,0,0,36.61,160Z"/><path class="cls-1" d="M65.13,97.81c5.31,6.21,6.77,5.85,4.39,9.51s-5.48,11-5.67,13.34,3.86,11.52,6.78,11.89,10.78-7.5,8.77-11.34-.92-8.81-2.2-11.9-4.3-6.38-2.15-8.21,3.25-6.58,3.25-6.58l-4.39-1.47s2.56-9.87,3.84-11.88,2-9.6-1.28-11.7-10.79,2-10.79,2-7.49,23.77-4,25Z"/></svg>