<?xml version="1.0" encoding="utf-8"?>
<!-- Generator: Adobe Illustrator 24.0.3, SVG Export Plug-In . SVG Version: 6.00 Build 0)  -->
<svg version="1.1" id="Layer_1" xmlns="http://www.w3.org/2000/svg" xmlns:xlink="http://www.w3.org/1999/xlink" x="0px" y="0px"
	 viewBox="0 0 464.6 428.1" style="enable-background:new 0 0 464.6 428.1;" xml:space="preserve">
<style type="text/css">
	.st0{fill:#FFFFFF;}
</style>
<title>1940</title>
<path class="st0" d="M464.2,346.1c0-16-9.3-23.1-9.3-23.1c0,0,0,0,0,0.1c0-0.1,0-0.1,0-0.1s0.2-15-0.6-32.3
	c-0.8-17.3-2.6-19.7-10.9-31.6c-8.3-11.9-34.4-17.6-43.2-20.2c-8.8-2.6-22.5-18.1-22.5-18.1l-15.8-7.3c-1.8-0.8-3.9-1.6-6.2-2.2
	l-141.1-93.1c-0.3-0.8-1.1-2.2-1.7-3c-0.6-1-4.7-3.9-5.3-3.9s-3-0.2-3.9-0.4v0c0,0-1.1-0.8-2.6-1.7c-0.5-3.3-1.6-6.8-3.2-10.6
	c-2.5-5.8-11-12.6-20-19.3c-8.1-10.9-14.4-19.6-16.5-22.8c-0.3-1.3-0.6-2.3-0.5-2.7c0.2-0.9,2,1.6,8.3-6
	c6.3-7.6,12.2-12.1,15.6-13.5c3.4-1.4,14.5-6.3,26.1-1.7c11.6,4.6,23.5,9.8,28.9,15.7c5.4,5.9,15,18,19.5,20
	c3.7,1.5,7.1,3.6,10.2,6.2c2.6,2.3,8,10.5,9.1,10.7c1.1,0.3,4.3-0.1,3.1-2.2c-1.2-2.1-4.9-9.4-8.7-11.6c-3.8-2.2-7-9.7-9.8-12.5
	s-11.3-13.2-18.9-17.6c-7.6-4.4-19.6-11.3-27.7-13.1c-8-1.8-20.6-4.2-25-2.4c-4.4,1.9-14.4,6.8-18.3,7.6c-3.9,0.8-12.7,5.7-14.7,7.4
	c-0.7,0.6-2,1.7-3.5,3c0.1-0.7,0.2-1.5,0.1-2.4c-0.1-7.7-1.5-9.4-4.7-11c-0.6-0.3-1-0.6-1.4-0.8c0.8-0.8,2.2-2.6,3.4-5.5
	c1.9-4.6-0.9-9.7-3.2-14.1s-8-5.2-14.5-5.3c-4.8-0.1-7.5,3.3-8.6,5c-3.8-1.3-7.9-1.5-11.9-0.8c-1.1,0.2-1.9,0.6-2.6,1.2
	c-1.6-3.4-1.6-8.4-1.6-8.4c-0.7-1.1-1.9-1.7-3.2-1.8c-2.1,0-5.2,2.5-6.5,4.6c-1.3,2.1,1.9,5.4,4.2,8.4c1.4,2.1,3,4,4.6,5.9
	c-0.1,1.7-0.1,3.6-0.1,5.7c-4.6-1.3-21.7-6.1-35.7-10.1c-1.2-0.4-2.3-0.7-3.3-1c-2-0.6-3.8-1.1-5.5-1.5c-5.3-1.5-9.2-2.6-10.3-2.9
	c-3.6-1.1-15.2,1-19.2,1.8c-0.5,0.1-0.9,0.1-1.4,0.2c-1.6-1.6-3.6-2.8-5.8-3.3C24.3,6.9,7.7,16.5,2.5,22.5s-1,19.4,0,25.1
	c1,5.7,16,18.4,19.9,29c3.7,10.1,4.6,34.1,3.3,46.2c-0.1-0.1-0.1-0.1-0.1-0.1l0.1,0.2c-0.1,0.6-0.1,1.1-0.2,1.7
	c-1.6,11.4,0,19.4,0.3,25.1c-2.1,26.2,8,64,8,64c-1.2,0.8,1.8,9.8,1.8,9.8s0,3.5,1.5,5.5c1.5,1.9,0.8,2.6,0.1,11.6
	c-0.7,9,4.8,19.8,9.7,26.5c4.9,6.7,24.8,18.3,32.7,22c7.9,3.7,20.9-7.4,20.9-7.4s7.4,4.5,17.2,10.3c9.8,5.8,22.9,34.1,28,41.3
	c6.1,8.8,7.9,10.6,18.6,21.8c14.4,15,41.1,25.1,58.5,32.9c17.4,7.7,86,32.6,102.3,36.2c16.6,3.7,49,5.5,71.2,2.3
	c22.2-3.2,53.2-38.3,61.9-49.8S464.2,362.1,464.2,346.1z M123.7,272.1c0.4,0.3,0.8,0.8,1.4,1.4c-0.6-0.6-1.3-1.2-1.9-1.8
	C123.4,271.9,123.6,272,123.7,272.1z M370.4,394.7c1.9-0.1,3.9-0.1,5.7-0.3l-1.2,1c-1.3,0-2.8-0.1-4.5-0.2V394.7z M137.6,10.8
	c2.8-0.1,5.7,2.6,8.4,9.7c1.7,4.6,1.2,6.8,0.6,7.8c-0.5-0.1-1,0-1.8,0.1c-2.3,0.5-3.5,0.4-5.2,0.9c0.1-0.6,0.1-1.9-0.8-3.8
	c-0.9-1.8-4.5-7.5-7.7-11.5c0-0.1,0.1-0.2,0.1-0.3C132.4,10.4,134.8,10.9,137.6,10.8z M46.8,229.6c-1-0.8-1.9-1.7-2.8-2.6
	c9.7,8.3,24,16.4,33.2,21.8c0.5,0.3,0.9,0.5,1.4,0.8C67.6,243.6,52.5,234.3,46.8,229.6z"/>
</svg>
