<svg id="Layer_1" data-name="Layer 1" xmlns="http://www.w3.org/2000/svg" viewBox="0 0 464.56 428.1"><defs><style>.cls-1{fill:#fff;}.cls-2{fill:none;}</style></defs><title>1940</title><g id="_1940_-_outline" data-name="1940 - outline"><path class="cls-1" d="M117.66,394.93s-10.06-37.83-8-64c-.29-5.69-1.86-13.72-.29-25.11s.8-37.27-3.08-47.89-18.9-23.29-19.93-29-5.18-19.15,0-25.11,21.74-15.53,25.37-14.75a12,12,0,0,1,5.91,3.36s16.09-3.36,20.49-2.07,51,14.5,55.66,15.79,48.4,25.37,50.73,30.55,71.45,95.78,73,97.59,42.19,37.79,47.37,40.64,11.39,10.61,21.49,12.68,43.49,0,59.28,7.23l15.79,7.27s13.72,15.53,22.52,18.12,34.94,8.28,43.23,20.19,10.09,14.24,10.87,31.58.62,32.33.62,32.33,2.91,12.88-8,28S506,564.66,488.69,569.74s-32.22,8.56-56.28,4.77-98.55-23.4-121-32.62S262.93,523.3,255,510.6s-42.19-52.38-47.46-57.15-32.33-15-46.51-23.32S120.46,407,117.66,394.93Z" transform="translate(-83.83 -181.36)"/><path class="cls-2" d="M372.46,557.49s-4-60.48,0-70.9h11.59s1,27.89,2.18,32.93.51,36.8,2,41.67,1.51,6,1.51,6" transform="translate(-83.83 -181.36)"/><path class="cls-2" d="M360.53,555s-1-64,0-68.38,3.69-13.44,3.69-13.44l28.9,4.2,2.69.67s.67,57.46,1,63.51,2.35,28.56,2.35,28.56" transform="translate(-83.83 -181.36)"/><path class="cls-2" d="M365.9,557s-1.34-60.15,0-67.71,2.19-8.9,2.19-8.9l21.67,1.84,1.85,43.35s1.17,37.13,2.69,40.83l1.51,3.69" transform="translate(-83.83 -181.36)"/><path class="cls-2" d="M109.47,304s9.8,10.14,19.44,22.31,21.63,25.68,27.55,33.29,22.37,34,26.65,49.69,9,27.55,12,31.94,6.67,9.22,6.67,9.22" transform="translate(-83.83 -181.36)"/><path class="cls-2" d="M404.68,572.1s-3.7-10.32-3.06-19,3.07-24.69,1.5-31.5-.24-29.95,0-39.72-1.44-14.46,1.56-18.8,4.59-6.59,0-12.7-12.9-9.17-17.24-12.16-23.66-18.87-28.83-23.73-10.65-13.46-13.47-14.4-22.39-19.1-24.73-22.23-21.92-22.08-24.9-26.62S281.89,332,279.07,326.37,270,313.53,270,313.53" transform="translate(-83.83 -181.36)"/><path class="cls-1" d="M538.71,504.36s9.3,7.12,9.3,23.12,2.64,19.16-6,30.59-39.73,46.58-61.88,49.75-54.57,1.4-71.19-2.29c-16.34-3.62-84.91-28.48-102.32-36.21s-44.16-17.89-58.54-32.88c-10.76-11.21-12.5-13-18.63-21.79-5.05-7.22-18.11-35.52-27.95-41.32S184.29,463,184.29,463s-13,11.08-20.92,7.38-27.78-15.29-32.7-22S120.3,430.79,121,421.83s1.46-9.67-.06-11.61-1.52-5.45-1.52-5.45-3-9-1.76-9.84,4.75,9.14,13,16,36,23.2,42.89,25.31,16.35,4.22,24.62,9.32,46.41,44.3,56.78,65c9.67,9.14,22.32,17.58,45.18,26.9s78.6,25.2,85.28,26.43,64,15.06,77.5,12.6,38-7.74,52.74-24.09,21.8-31.29,22.51-36.92A83.45,83.45,0,0,0,538.71,504.36Z" transform="translate(-83.83 -181.36)"/><path class="cls-2" d="M201.92,223l-7,17.76s-24.57-3.4-39.87-6.8-39.31-9.64-45.35-13.42-11-4.15-11.72-7.93.19-8.51,2.27-11,7.56-8.51,20.41-9.64,19.27-1.32,33.25,2.83S191.15,207,191.15,207,196.63,222.07,201.92,223Z" transform="translate(-83.83 -181.36)"/><path class="cls-2" d="M113.3,287.26s4.72-12.47,2.26-21.16-14.17-31.74-14.17-31.74-5.29-12.29-5.67-15.5-.94-8.31-3.21-9.82-4.72,0-4.72,2.64-.57,13.23,2.08,17.39,10.86,12.28,12.13,14,7.33,10.58,8.08,12.47S118,277.63,113.3,287.26Z" transform="translate(-83.83 -181.36)"/><path class="cls-2" d="M110.27,327.89s0,6.24,7.37,17,20.41,31,23.43,38.92,10.77,34.39,16.25,39.68,9.45,8.32,15.5,11,8.5,3.78,8.5,3.78" transform="translate(-83.83 -181.36)"/><path class="cls-2" d="M183.11,441.9s11.25,4.53,23.18,15.62,20.17,16.13,32.6,37.81,33.26,37.3,43.18,41.33,45.7,17.47,45.7,17.47" transform="translate(-83.83 -181.36)"/><path class="cls-2" d="M110.65,253.69s14.88,11.72,32.28,16.12S205.81,284,205.81,284" transform="translate(-83.83 -181.36)"/><polygon class="cls-1" points="255.25 365.05 247 373.15 247 390.37 286.83 404.32 286.83 388.19 293.71 379.61 255.25 365.05"/><path class="cls-1" d="M404.68,564.78v7.32l-3.06,4.65.29,20.39s48,6.92,49.77,6.65-.95-16.39-.95-16.39l3.46-6.92v-7.72Z" transform="translate(-83.83 -181.36)"/><path class="cls-2" d="M376.29,570.09s13.7,5.54,19.52,6.1l5.81.56" transform="translate(-83.83 -181.36)"/><path class="cls-2" d="M454.19,580.48s16.15,5.43,37.89-7.06,42.36-30.27,46.88-39.87,4.24-20,0-23.16" transform="translate(-83.83 -181.36)"/><path class="cls-2" d="M355.24,553.12s-6.34-70.41-3.23-78,7-10.45,3.23-16.38-36-32.48-43.9-39.54-17.51-15.81-33.61-34.73-37-46.88-40.94-57.9-12.71-31.63-12.71-31.63" transform="translate(-83.83 -181.36)"/><path class="cls-2" d="M110.27,341.31s5.72,11.11,10,20.39,9.13,13.08,14.3,28,8.06,24,14.9,31.34" transform="translate(-83.83 -181.36)"/><path class="cls-2" d="M213.82,266.58s-2.87-14.32-4.78-16-16-3.1-29.58-6.44-40.73-6.92-49.6-10S101.67,225.54,99.52,221s-3.34-13.84-6.44-15.27c-1.34-.91-5.06-3.2-6.63-1.48s-2.15,6.87-2.15,6.87" transform="translate(-83.83 -181.36)"/><path class="cls-2" d="M474,415.48c-.57-1.52-8.17-2.66-12.16-6.27s-2.66-6.07-9.3-6.83-23,3.6-26.78,4.36-18.43,7-27.55,5.32-20.7-5.13-23.36-7.4-12.34-14.06-16.9-16.15-13.63-9.12-19.16-14.25-34-43.68-36.31-46.15-3.6-11.4-7-16.9A43.34,43.34,0,0,0,286,300c-2.66-2.09-16.14-11.21-16.9-12.54s-7.79-13.67-12-15.19" transform="translate(-83.83 -181.36)"/><path class="cls-2" d="M333.24,558.44" transform="translate(-83.83 -181.36)"/><line class="cls-2" x1="249.41" y1="377.08" x2="285.03" y2="392.06"/><line class="cls-2" x1="320.95" y1="397.04" x2="364.99" y2="402.8"/><path class="cls-1" d="M260.21,294.39s9.88-5.84,14.93-6.72,12.37,4.57,12.37,4.57.42,4.71-4.16,5.85-10.9,2.22-14.93,3.83a15.41,15.41,0,0,0-6.19,4.52l-12.1-3Z" transform="translate(-83.83 -181.36)"/><path class="cls-1" d="M259.27,327.89s2.05-8.57,3.23-12.79,5.38-8.34,8.07-12a44.27,44.27,0,0,0,5.91-11.29c.89-2.82,5.65-6.86,5.65-6.86s.54,17.37-1.88,21.46-6.94,9.33-9.52,13.77a81.18,81.18,0,0,1-7.18,9.77Z" transform="translate(-83.83 -181.36)"/><path class="cls-1" d="M413.78,410.38s-7.27,21.47-18,32.43c5.14,3.77,6.53,5,6.53,5s20.69-32.57,21-40.37C416.59,409.57,413.78,410.38,413.78,410.38Z" transform="translate(-83.83 -181.36)"/><path class="cls-1" d="M181.32,393.3h-4.6s.79-8,2.3-16.13-1.29-17.22,0-22.29,9.16-29.54,10-31.72,9-27.1,11.36-30.81,11.87-24.27,12.22-24.53,2.94,19.44,2.94,19.44-12.77,27.54-13.74,30.19-3.61,13.31-4.87,16.75-5.29,23.19-6.55,25.6-3.44,6.66-4,7.81S182.79,393.3,181.32,393.3Z" transform="translate(-83.83 -181.36)"/><path class="cls-1" d="M215.57,238.08s3.51-8.92,7.33-9.91,3.12,0,3.12,0-2.45,42.74,0,52.5,4.47,14.72,3.48,15.57-10.18,4.1-10.89,2-3.09-8-3.09-9.48S210.88,279,214.41,261c.14-5.94-.3-17.52.43-20.22Z" transform="translate(-83.83 -181.36)"/><polygon class="cls-1" points="149.5 81.97 158.59 80.37 165.09 91.93 154.34 93.27 149.5 81.97"/><path class="cls-1" d="M257.65,279.58c-2.31-10-9.72-20.6-9.72-20.6s-15-29.62-15.2-30.81c-.17-.8-2-.72-3.92-.45.63,4.8,3.3,23.93,5.46,25.3,2.48,1.56.89,1.78,3.95,5.48s11.34,25.61,13.51,31.73,1.91,5-3.69,0c-5.36-4.75-12.81-22.53-16.25-38.78-.16-.75-.31-1.51-.45-2.26-2.4-12.7-2.7-19.08-2.7-21.44-.9.12-1.82.29-2.62.42-2.62.44-.69,15.32-1,41.78s23.29,31.13,26.54,31.19,4.33-2.12,7.12-4.43S260,289.59,257.65,279.58Z" transform="translate(-83.83 -181.36)"/><path class="cls-1" d="M228.67,226.64s0,.34,0,1.09v0l.17,0Z" transform="translate(-83.83 -181.36)"/><path class="cls-1" d="M225.05,270s3.09,18.61,12.13,25a63.28,63.28,0,0,0,14,7.3c5,1.88,9.67,2.85,12.73,2.63,5.89-.42,17.64-2.63,16.6-8.78s-10.92-18.55-16.6-22.34-11.35-6.28-13-10.39-8.7-14.42-10-17.57-8.05-14.3-7.84-16.4,2.53,11.35,14.72,20.82,30.07,20.81,33.85,29.64,5,16.4,1,21.87-10.3,7.78-15.77,8.83-24.45,1-30.9-8.2S223.23,288.67,225.05,270Z" transform="translate(-83.83 -181.36)"/><path class="cls-1" d="M229.81,210.27s2.66-1.36,0-8.42-5.54-9.78-8.36-9.68-5.25-.37-6.45,2.92-5.52-2.92-5.52-2.92,2.75-6.21,9.22-6.1,12.25.84,14.46,5.26,5.05,9.47,3.16,14.1-4.11,6.21-4.11,6.21Z" transform="translate(-83.83 -181.36)"/><path class="cls-1" d="M213.82,227.68S196,227.49,193,206.14c0-9.72,0-14.87,5.15-15.82a24.12,24.12,0,0,1,12.58,1c2.86,1.09,10.48,12.9,11.82,15.57s.76,4.19.76,4.19S212.35,222.15,213.82,227.68Z" transform="translate(-83.83 -181.36)"/><path class="cls-1" d="M193.93,183.08s0,7,2.67,10.1,18,13.32,21,17.15,2.86,5.73,2.86,5.73l-4,7s-11.06-10.67-16.4-15.44a87.16,87.16,0,0,1-11.62-13.34c-2.29-3-5.53-6.29-4.2-8.39s4.39-4.57,6.48-4.57A4.14,4.14,0,0,1,193.93,183.08Z" transform="translate(-83.83 -181.36)"/><path class="cls-1" d="M215.57,238.08s-5-6.19-2.48-11.44,5.85-9.75,9.14-9.75,10.39,1,11.25,4.33,3.53,4.4-.51,8.14S215.57,238.08,215.57,238.08Z" transform="translate(-83.83 -181.36)"/><path class="cls-1" d="M234.38,231.78s4.83-1.31,4.7-9-1.55-9.36-4.7-11-3-2.61-5.74-2.06-4,.27-6.36,1.37-4.82,7.77-2.89,9.6S234.38,231.78,234.38,231.78Z" transform="translate(-83.83 -181.36)"/><path class="cls-1" d="M242.42,247.36s2.69.15,3.15-4-1.08-7.35-.92-8.24,2,1.64,8.34-6,12.22-12.09,15.62-13.48,14.53-6.34,26.13-1.7,23.5,9.81,28.91,15.73,15,18,19.48,20a38.66,38.66,0,0,1,10.2,6.18c2.63,2.32,8,10.46,9.12,10.72s4.31-.11,3.08-2.24-4.94-9.41-8.72-11.57-7-9.74-9.82-12.53S335.71,227,328.13,222.62s-19.63-11.35-27.67-13.1-20.57-4.21-25-2.36-14.4,6.8-18.33,7.58-12.71,5.72-14.66,7.42-9.68,8-9.68,9.62S242.42,247.36,242.42,247.36Z" transform="translate(-83.83 -181.36)"/><path class="cls-1" d="M266.39,334.26l-.66,5.6a47.33,47.33,0,0,0,16.45,0,95.1,95.1,0,0,0,15.93-4.74l9.48-13.57s2.78-1.15,3.93,0,2.61-2.62,2-3.93-.65-2.78-2.13-2.78-3.43.65-3.92,2.13-2.29,3.92-3.11,4.25-11.24,2.78-13.88,4.41-12.45,6.87-15.72,7.2S266.39,334.26,266.39,334.26Z" transform="translate(-83.83 -181.36)"/><path class="cls-1" d="M295.25,299.22s1.66.15,1.74.71-.08,2.85,1,3.56,6.25,7.12,6.56,8.07a21.07,21.07,0,0,1,1.11,4.43c.08,1.34-5,16.93-7.44,20.57s-8.35,11.86-8.56,12.73-2,2.3-2.17,4,.39,7.42-.72,7.42-5.48-.38-5.48-1.17a31.28,31.28,0,0,1,.86-5.38c.49-1.9,3.81-10.29,4-11.71s4.51-12.75,5.61-14.6,5.19-7.2,5.09-14A99.6,99.6,0,0,0,295.25,299.22Z" transform="translate(-83.83 -181.36)"/><path class="cls-1" d="M318.27,326.86s9.35,11.16,10.74,17-5.37,18.76-5.37,18.76-11.37,22.7-12.54,25.12-5.91.29-5.91.29,1.56-10.77,2-12.24,3-10,5.54-13.86,8.92-16.89,8.32-20.52-2-10.57-3.29-13l-1.3-2.42Z" transform="translate(-83.83 -181.36)"/><ellipse class="cls-1" cx="271.32" cy="258.19" rx="11.07" ry="8.32"/><path class="cls-1" d="M290.44,365.42s-.93,3.71-1.27,4.75,2.94,1.65,6.15,1.21,13.33-3.56,15.41-5.54,17.15-13.68,19.32-15.68,4,0,4.15-1.3-.66-4.67-1.32-4.67-9.76-.42-11.24.78-7.1,5.19-8.92,7.19-10.91,9.09-14.46,10.56S290.44,365.42,290.44,365.42Z" transform="translate(-83.83 -181.36)"/><path class="cls-1" d="M312.52,397.5s1.28-3.1,1.11-4.87,25.15-13.87,25.15-13.87,17.09-7.52,18.52-7.24,8.62,4.43,9.13,5.36.51,3.88.51,4.22,1.16-1.77-1.41-1.69-18.62,8.14-18.62,8.14-19.35,11.3-23.49,11S315.3,399.27,312.52,397.5Z" transform="translate(-83.83 -181.36)"/><path class="cls-1" d="M348.65,439.37s6.65,6.89,10,3.44,1.84-9.78,0-13.57-2.87-7.26-2.76-8,3.27-12.35,3.78-13.84,2.66-7.52,2.56-8.8,3.74-1.91,4.15-2.83-8.41-8-9.6-7.85-3.86,7.76-4.27,10.11-5.11,6.85-3.89,15S348.65,439.37,348.65,439.37Z" transform="translate(-83.83 -181.36)"/><path class="cls-1" d="M393.76,396.2a7.16,7.16,0,0,0-5.45-5.45c-2.81-.47-4.88-4.41-10.05-2.06s-16,9.93-16,9.93l-4.84,16.86s3-2.65,8.11-6.78,6.72-4.14,8.93-5.26A105.75,105.75,0,0,0,385,395.83c1.4-1.22,5-3.1,6.2-1.69A9.35,9.35,0,0,0,393.76,396.2Z" transform="translate(-83.83 -181.36)"/><ellipse class="cls-1" cx="377.36" cy="451.14" rx="10.02" ry="6.6" transform="translate(-177.74 -82.12) rotate(-13.34)"/><path class="cls-1" d="M373.72,453s10,2.82,9.43-.94-4.89-11.55-3.1-16.72,3.57-6.58,5.26-6.76,7.8-3.12,7.7-6.49-.18-9.77,0-10.71-10.43,10.71-10.43,10.71.94,1.71-1.5,1.89-5.17-.1-6.62,1.78-5.69,9.11-4.84,14.75S371.76,452.57,373.72,453Z" transform="translate(-83.83 -181.36)"/><path class="cls-1" d="M410.08,397.33c.09.73,1.06,3.27,5.31,2.59s11.1-2.38,12.44-3.95,2.17-3.57.38-3.87a34.5,34.5,0,0,0-5.44-.3c-1.57,0-4.77.75-5.22.75S410.08,397.33,410.08,397.33Z" transform="translate(-83.83 -181.36)"/><path class="cls-1" d="M369.05,425s18.14-21.79,19.08-22.73a149.62,149.62,0,0,1,14-9.87,18.21,18.21,0,0,1,13.06-1.22c5.36,1.41,7.67,1.66,8.16,3.74s-8.91,6-8.44,3.75-.47-2.79-1.59-2.51a94.7,94.7,0,0,0-11.65,5.07c-1.88,1.22-7.33,10-8.65,10.24s-7.42,10.82-9.68,12.6-7.68,4.37-8.87,4A50.41,50.41,0,0,1,369.05,425Z" transform="translate(-83.83 -181.36)"/><ellipse class="cls-1" cx="223.41" cy="213.09" rx="7.01" ry="6.69"/><path class="cls-1" d="M330.39,407.92c-6.11,0-11.07,4.44-11.07,9.91s5,9.92,11.07,9.92,11.07-4.44,11.07-9.92S336.5,407.92,330.39,407.92Zm-.68,15c-3.39,0-6.13-2.33-6.13-5.21s2.74-5.21,6.13-5.21,6.13,2.34,6.13,5.21S333.1,422.9,329.71,422.9Z" transform="translate(-83.83 -181.36)"/><ellipse class="cls-1" cx="199.6" cy="185.26" rx="7.01" ry="6.69"/><ellipse class="cls-1" cx="176.02" cy="154.01" rx="7.27" ry="6.94"/><path class="cls-1" d="M341.59,354.15s2.36-1.44,5,3.67,5.32,11.54,4.4,16.78-6,18.33-7,20.27-7.18,14-7.86,17.24-1.8,7-1.54,8.31-2.6-.95-4.63-1.88-4.47-2.62-4.47-3.81a48.17,48.17,0,0,1,3.38-12.84c2.11-4.65,7.26-14.79,8.11-17.75s5.74-14.45,4.05-20.36-1.69-7.44-.93-8.37A4.54,4.54,0,0,1,341.59,354.15Z" transform="translate(-83.83 -181.36)"/><path class="cls-1" d="M331.34,352.72s4.18-6,6-6.11,7.51,1.31,8.73,3.49,1.43,3.1,1,5.41-4.45,1.05-5.06,3-1.17,3-2.68,2.27S331.34,352.72,331.34,352.72Z" transform="translate(-83.83 -181.36)"/><path class="cls-1" d="M309.15,324.26l1.32-2.47s1-3.87,3.71-3.33,8.73,4.18,8.73,5.8.85,3.81-.46,3.45-4.87.34-4.87,1.73-.77,3.25-1.93,2.25S309.15,324.26,309.15,324.26Z" transform="translate(-83.83 -181.36)"/><path class="cls-1" d="M287.51,292.24c.92.13,3.39.37,3.94.37s4.62,2.95,5.26,3.91,1.83,2.87,1.75,3.5-1.44,1.15-2.15,1.2-3.22-.8-3.32-.4-.66,2.39-.82,2.71-5.85-3.23-6.05-5S287.51,292.24,287.51,292.24Z" transform="translate(-83.83 -181.36)"/></g></svg>