<svg id="Layer_1" data-name="Layer 1" xmlns="http://www.w3.org/2000/svg" viewBox="0 0 458.56 403.35"><defs><style>.cls-1{fill:#fff;}.cls-2{fill:none;}</style></defs><title>1962</title><path class="cls-1" d="M333,308.78s88.08,68.31,91.47,70.57,43.47,33.31,46.29,34.44,47.43,27.1,49.69,28.8,2.26,11.85,0,12.42,14.68,3.95,20.89,11.85,16.37,27.67,13,41.22L551,521.63s5.08-4,6.77,0,1.84,29.89,0,33.35-23.83,35.84-41.13,32.87-102.81-23.23-110-26-111.21-27.18-130.48-37.07-36.33-11.36-52.4-8.89S113.92,501,112,496.74s-14.63-44.45-10.69-51.2,7.59-8.72,9.56-8.44-14.06-29.81-6.75-56,17.72-83,20.54-102.67,2.53-65.26,5.9-66.95,3.38-10.68,12.38-15.75,28.13-13.5,74.26-10.4c17.72.84,43,0,59.35,7.87s29.25,6.47,36.28,11.25,10.41,4.78,12.38,28.13-.84,25.6-.56,28.69,4.75,3.38,5.19,7.6,3.25,18,4.37,26.16A29,29,0,0,1,333,308.78Z" transform="translate(-100.51 -184.69)"/><path class="cls-2" d="M551,521.63s2.65,9.27-2.89,14.19-18.15,27.08-68.92,20.31-139.37-23.08-196.6-47.08-155.07-48-164-53.84-7.74-18.11-7.74-18.11" transform="translate(-100.51 -184.69)"/><path class="cls-2" d="M482.7,557.4s21.26,5.08,33.08,6,18.9-.94,24.58-7.56,16.06-12.52,14.88-21.27-4.27-13-4.27-13" transform="translate(-100.51 -184.69)"/><polygon class="cls-2" points="442.45 371.17 442.45 389.16 454.83 371.17 454.83 355.1 442.45 371.17"/><path class="cls-2" d="M110.82,437.1s12.24,9.89,17.39,10.8,38.84,1.21,47.94-2.12,24-10.62,53.4-7,43.08,4.55,64.62,18.5,46.73,33.38,53.1,37.32,66.14,40.28,79.49,45.17,65.51,15.51,88,11,32.57-15.78,34.4-22.45l1.82-6.67" transform="translate(-100.51 -184.69)"/><path class="cls-2" d="M110.82,437.1a148.69,148.69,0,0,0,51.67,2.83c27.6-3.6,38.4-9.6,46.4-10.4s26-5.7,54.4,5.75,64,31.05,80.4,46.65,46,32.2,61.2,39.7,20,12.7,40,16.3S500,547,519,542.64s30.13-14.34,30.13-14.34" transform="translate(-100.51 -184.69)"/><path class="cls-2" d="M103.42,409.84s20.57,15,42.21,12.48,35.23-6.79,47.11-10.18,17.4-6.37,42-5.52,58.14,10.19,71.3,18.68,59,35.22,71.72,44.56,60.26,49.22,90,51.77,63.82.82,75.22-6.37S555,502.53,555,502.53" transform="translate(-100.51 -184.69)"/><path class="cls-2" d="M553.06,490.1S537.19,511.44,519,511s-54.68,3.45-80.14-13.77S358.67,445.67,337,431.66s-43.71-36.07-78.51-36.92-48.38,1.7-74.69,9.34-27.39,13.76-53.9,9.76l-26.51-4" transform="translate(-100.51 -184.69)"/><path class="cls-1" d="M146.51,211.51s-2.18,13.17,26.61,18.08,61.61,5.81,77,0,34.63-14.47,44.19-21.43l9.55-7" transform="translate(-100.51 -184.69)"/><path class="cls-1" d="M213,217.41s13.53-10.59,23.46-18.18c2.8-2.14,5.23-4.06,7.46-5.69,5.71-4.15,10.08-6.35,15.74-5.07,7.86,1.78,29.06,13.82,27,19.24s-32.43,17.79-32.43,17.79-28.33-8.09-34.76-8.09Z" transform="translate(-100.51 -184.69)"/><path class="cls-1" d="M297.81,335.43s-4.91,4.91,11.61,18.75,26.35,24.12,43.32,24.12,25-5.81,26.79,2.23-2.68,14.73,2.23,21,21.89,22.32,29,21.43,23.67-4,30.81-1.78,5.81,6.25,8.49,11.61,13.39,17,30.36,23.66,24.28,17.77,32.16,8.17l7.87-9.6s7.16-8.29-3.65-14.69S392.07,365,360.89,330.37L333,308.78Z" transform="translate(-100.51 -184.69)"/><path class="cls-1" d="M324.6,261.3s-1.72,13.39-20.73,24.11S258.07,313.54,246,318.9s-21.43,13.85-21.43,20.1-3.58,16.07,4,19.2,17.87,9.82,35.28,0,40-27.36,40-27.36L333,308.78s1.83-42.56-8.43-47.48" transform="translate(-100.51 -184.69)"/><path class="cls-1" d="M310.26,203.12s7.81,10.53,5.83,14.29-19.22,18.45-41.83,22.69-64.44,6.22-69,9-5.65,17.81-2.54,22.33-3.4,10.74,18.65,13,65.29-4.24,74-8.19,29.14-15,29.14-15-.05-38.14-1.29-42.59-6.66-13.67-13.05-15.59" transform="translate(-100.51 -184.69)"/><path class="cls-1" d="M246.32,191.08s-54.45-4.43-67.73-1.33-34.31,6-31.21,12.4A21.39,21.39,0,0,0,153,209c4.55,3.79,11.26,7,19.85,8.4,13.5,2.22,38,3.12,41.17,1.56S246.32,191.08,246.32,191.08Z" transform="translate(-100.51 -184.69)"/><path class="cls-2" d="M154,206.8c9.74-2.88,6.2-3.16,21.25-3.68s33.87.48,43.61,1.08,12,.69,12,.69" transform="translate(-100.51 -184.69)"/><path class="cls-1" d="M213,259.69s33.19-7.1,36.17-6.41,4.8-1.83,5.26,6.41.92,22.2,0,22-7.55,1.6-24-1.14-17.4-5.27-17.4-5.27S205.4,266.78,213,259.69Z" transform="translate(-100.51 -184.69)"/><path class="cls-1" d="M266.74,315.54s13.74,10.3,15.8,15.34.23,8-7.9,11.67-22.78,11.44-26,9.61-10.07-5-6.64-11S264.23,316.23,266.74,315.54Z" transform="translate(-100.51 -184.69)"/><path class="cls-1" d="M333.16,361.55s1.79,3.89,12.09,0,22.21-8.7,21.06-11.45-9.38-9.38-13.5-13-7.56-6.6-10.53-3.07-13.06,13.82-11.09,20.69Z" transform="translate(-100.51 -184.69)"/><path class="cls-1" d="M395.76,400.09S405.79,378,410,378s14.51,6.37,18,10.54,7.12,6.46,3.21,8.76-17.23,10.94-24.35,9.15S394.58,402.59,395.76,400.09Z" transform="translate(-100.51 -184.69)"/><path class="cls-1" d="M474.1,444.2s7.12,2.07,16.54-3.45,10.29-4.87,9.88-7.58-17.5-15.38-20.58-14.35-7.22,4.54-9.05,9-4.14,8.81-2.3,11.79A13.79,13.79,0,0,0,474.1,444.2Z" transform="translate(-100.51 -184.69)"/><circle class="cls-1" cx="79.88" cy="242.15" r="8.77"/><circle class="cls-1" cx="142.65" cy="75.31" r="6.2"/><circle class="cls-1" cx="163.73" cy="140.71" r="6.2"/><circle class="cls-1" cx="172.96" cy="151.65" r="6.2"/><path class="cls-1" d="M264.23,405s-7.75-8.08-10.88-7-10.42,2.61-1.56,14.08,15.91,21.11,18.64,20.85,7.17-2.08,6.65-6-5.93-9-4.7-11.52,2.35-3.6,3.65-4.12-5.6-9.65-5.6-9.65Z" transform="translate(-100.51 -184.69)"/><circle class="cls-1" cx="153.42" cy="219.47" r="4.8"/><circle class="cls-1" cx="171.2" cy="242.3" r="4.8"/><circle class="cls-1" cx="290.97" cy="309.79" r="5.23"/><circle class="cls-1" cx="313.34" cy="333.96" r="5.23"/><circle class="cls-1" cx="245.74" cy="154.91" r="6.2"/><circle class="cls-1" cx="257.13" cy="164.88" r="6.2"/><circle class="cls-1" cx="312.09" cy="199.54" r="6.2"/><circle class="cls-1" cx="324.49" cy="208.86" r="6.2"/><circle class="cls-1" cx="378.71" cy="240.78" r="6.2"/><circle class="cls-1" cx="391.76" cy="248.47" r="6.2"/><circle class="cls-1" cx="144.02" cy="91.16" r="6.2"/><polygon class="cls-1" points="85.01 87.83 109.74 85.79 112.45 90.56 85.92 92.75 85.01 87.83"/><polygon class="cls-1" points="118.26 170.59 142.02 163.15 145.51 165.96 120 175.65 118.26 170.59"/><polygon class="cls-1" points="105.51 164.49 114.37 161.59 122.65 185.12 115.82 189.33 105.51 164.49"/><path class="cls-1" d="M320.18,370.94c-.53-2.4-19.22-12.81-19.22-12.81l-1.5-1.06C298,356,290,366.4,289,367.74s-19.23,26.16-21.69,32,8.77,11.46,11.19,15.58,11.3.47,16.1-1.4,19-26.17,21.63-29.7S320.72,373.35,320.18,370.94Zm-16.57,23.64c-1.94,3.88-7.76,17.94-13.33,17.45s-10.33-2.66-11.83-4.36-2.14-10.48,1.21-17.24,15.18-25.58,15.18-25.58l20.89,11.07S305.55,390.71,303.61,394.58Z" transform="translate(-100.51 -184.69)"/><path class="cls-1" d="M331.19,354.68l2,6.87s-10.32,7.13-15.74,9.77-11.87,10.51-16.24,17.25-7.39,14.9-9.33,14-5.56,1.19-8.53,1.68-5.47,5.43-5.77,1,2.2-16.44,5.77-17.93,3.32-5.71,6.72-5.3,7.75-5.57,9.93-8S322,357,331.19,354.68Z" transform="translate(-100.51 -184.69)"/><polygon class="cls-1" points="298.56 219.29 283.27 232.53 278.81 227.35 295.26 215.4 298.56 219.29"/><polygon class="cls-1" points="348.09 270.71 352.76 275.02 371.34 258.19 368.08 254.91 348.09 270.71"/><path class="cls-1" d="M461.17,468.36s-26.95-19.18-29.3-18.7-11,10.64-12.54,11.59-14.42,16-15.2,18-.79,13,0,16.45,8.46,7.37,11.12,9.09,13.95-1.88,16.77-2.66,26.8-25.39,29.15-28S461.17,468.36,461.17,468.36ZM445.34,484c-3.92,4.86-13.79,14.1-17.86,16s-9.4.63-11.76,0-6.46-6.54-8.14-10.81.31-6.27,1.09-10.5,24.21-25.79,24.21-25.79,22.92,17.59,22.65,20.31S449.26,479.11,445.34,484Z" transform="translate(-100.51 -184.69)"/><polygon class="cls-1" points="333.24 266.21 339.51 261.51 360.67 281.73 355.3 285.75 354.4 286.43 333.24 266.21"/><path class="cls-1" d="M127.27,372.66s2.08,8.18,5.54,6.94,2.22-5.13,5-1.53.55,6.93,6.1,5.82,16.22-5.13,18.3-6.65,9.84-5.41,7.9-8-4-7.77-6.79-6.52-6.38,5.55-11.09,6.93-6.24,4.3-9.43,1.39-2.91-5.82-6.52-4.72S127.27,372.66,127.27,372.66Z" transform="translate(-100.51 -184.69)"/><path class="cls-1" d="M207.83,347.84l-.84-1.56s-20.07,2.81-26.6,4.2-23.87,1.39-25.39,4.3-4.16,8.59-3.33,11.09,6.52,12.2,11.23,13.59,27.59-1.39,33.83-2.5S214.59,374,214.59,374l4.17-.72-1.51,3s-35.91,6.24-42,6.51-10.4,1.11-14.69-2.08-12.17-9.15-11.71-14.69,1-10.11,3.39-11.92,5.13-3.33,7.21-3.47,22.69-2.5,29.72-4.86A75.47,75.47,0,0,1,206,342.44c1.39,0,5.69,1.67,6,3.19S207.83,347.84,207.83,347.84Z" transform="translate(-100.51 -184.69)"/><path class="cls-1" d="M404.13,495.72s-2.32,3.27-5.07-1.24-5.44-8.45-8.6-6.26-8.33,5.35-2.92,11,17.08,20.22,19.38,22.43,10.79,7.52,11.92,2.12-.48-8.54-2-13.74-4.73-10.88,1.13-12.76,14.41-8.43,16.88-11.23,3.61-9.78,0-11.36-10.13.22-16,3.83-9,4.41-10.14,7.53S404.13,495.72,404.13,495.72Z" transform="translate(-100.51 -184.69)"/><path class="cls-1" d="M375.38,524.2l7.43,6.08s15.31-19.69,24.11-25,18.4-11.74,18.4-11.74l-10.09-11.67s-12.59,13.35-17.56,18.23S375.38,524.2,375.38,524.2Z" transform="translate(-100.51 -184.69)"/><path class="cls-2" d="M519,458.66s7.13,4.72,0,12.46-37.56,21.46-47.18,23.36-18.58,11.14-25.77,7" transform="translate(-100.51 -184.69)"/><path class="cls-1" d="M388,427.81c-.74-3.69-19.61-25.64-19.61-25.64s-5.52-1.32-9.64,2.34S336.78,423,334.05,427s-4.52,8.86-4.26,12.63,5.19,14,8.86,16.87,10.75,4.1,14.85,2.19,25.84-19.14,27.31-20.42S388.69,431.49,388,427.81Zm-12.58,9.29a102.13,102.13,0,0,1-21.49,17.37c-7.31,4.5-10.11.45-14-2.56s-5.66-9.4-5.82-14.81.68-6.94,3.3-9.29,5.86-6.07,14.07-13.58,12.4-7.12,12.4-7.12l19.54,20.7S382.48,429.56,375.38,437.1Z" transform="translate(-100.51 -184.69)"/><polygon class="cls-1" points="263.33 222.41 270.3 217.48 278.81 227.35 289.23 239.43 281.98 244.87 263.33 222.41"/><path class="cls-1" d="M166.67,375.67s4.55-.59,6.9-3.67,11.44-7.63,12.32-10.42,1.31-6.21-2.1-8.66-10.79-2.49-13.37,0-7.27,5.45-9.47,7.42-3,3.64-2.5,4.51,6.61-1.8,8.51-3.71,3.67-3.74,6.17-4.14a3.77,3.77,0,0,1,4.11,4.58c-.74,2.35-4.11,7.35-5.62,7.48S166.67,375.67,166.67,375.67Z" transform="translate(-100.51 -184.69)"/><path class="cls-1" d="M182.36,261.3s2.41-4.07-3.68-4.91-28.6-5.45-31.61-7.76-4.89-3.75-7.41-4.6-3.77-2.32-7.13-1.07-5.8,8-5.85,8.93,0,12.14,4.71,17.76,16.25,14.22,20.23,16.32,20.67,6.71,24.92,6.92,7.33.84,7.25-.84S182.36,261.3,182.36,261.3Zm-4.1,1.57,0,26.53h-2.95c-3,0-21.82-6.58-23.29-7.35s-14.47-10.14-17.2-13.49-3.78-14.9-3.36-18.25,5.67-3.78,6.93-2.31,5,2.31,7.13,4,18.88,6.51,18.88,6.51A75.85,75.85,0,0,1,176.54,260C182.36,261.3,178.26,262.87,178.26,262.87Z" transform="translate(-100.51 -184.69)"/><path class="cls-1" d="M128.55,256.81s15.31-1.89,15.31,0,5.87,8.6,0,8.6-13.67,1.37-16.59.79-7.53-3.55-8.79-4.9-3.57-2.81-2.94-5.33-4.2-1.89-3.57-4.4,0-9.44,0-9.44H126s-1.65,13.07.43,13.88Z" transform="translate(-100.51 -184.69)"/><path class="cls-1" d="M140.05,266.34s8.74,2.24,13.71,1.49,11.3-.9,11.15-3.46-.06-7.86-1.2-9.49-18.86-8.14-20.57-9.13S140.05,266.34,140.05,266.34Z" transform="translate(-100.51 -184.69)"/><path class="cls-1" d="M147.07,264.82c3.23-.3,4.89,2,6.54-.75s2.94-7,1.1-8.54-7.43-1.75-9.23-1.73-3.32,2.28-3.32,2.28Z" transform="translate(-100.51 -184.69)"/><path class="cls-1" d="M367.31,425.47c-2.52-3.45-4.47-1.83-8.42-.81s-10,4.26-13.26,4.9-5.79,7.54-5.79,7.54l.53.41c-4.24,3.45-8.86,7.27-10.58,8.5-3.41,2.42-12.79,10.13-13.85,12.61s-4.36,7.77-10.67,12.86a85,85,0,0,0-10.43,9.95s4.12,7,5.09,6.79,13.06-10.14,15.53-12.37,8.33-9.46,12.78-14.32c3.31-3.61,16.81-13.42,23.38-18.59a5.26,5.26,0,0,0,2.53-.31c4.8-2.08,2.73-1.79,7-1.44s6.64-4.26,9.71-6.65S369.83,428.92,367.31,425.47Z" transform="translate(-100.51 -184.69)"/><path class="cls-1" d="M329.79,462.07s7.76,12.49,10.51,12,12.56-4.87,11.14-7.26-7.06-13-9.31-14-10.19-13.48-13.89-14-6.36.07-8,1.91-2.89,7.6-1.06,8.84S329.79,462.07,329.79,462.07Z" transform="translate(-100.51 -184.69)"/><polygon class="cls-1" points="76.03 78.18 85.01 78.18 86.01 104.71 77.78 104.71 76.03 78.18"/></svg>