<?xml version="1.0" encoding="utf-8"?>
<!-- Generator: Adobe Illustrator 24.0.3, SVG Export Plug-In . SVG Version: 6.00 Build 0)  -->
<svg version="1.1" id="Layer_1" xmlns="http://www.w3.org/2000/svg" xmlns:xlink="http://www.w3.org/1999/xlink" x="0px" y="0px"
	 viewBox="0 0 458.6 403.4" style="enable-background:new 0 0 458.6 403.4;" xml:space="preserve">
<style type="text/css">
	.st0{fill:#FFFFFF;}
</style>
<title>1962</title>
<path class="st0" d="M457.3,336.9c-1.7-4-6.7-0.1-6.8,0c0,0,0,0,0,0l3.3-13.5c1.3-5.4,0.5-11.7-1.3-18c0,0,0,0,0,0l0,0
	c-2.8-9.4-8-18.5-11.7-23.2c-5.7-7.2-20.3-10.7-21.1-11.6l0.2-0.2c0,0,0,0,0,0c0.6-0.2,1-0.9,1.3-2c1-1.9,1.8-5.1-0.1-8.2
	c-0.3-1-0.7-1.8-1.1-2.1c-0.5-0.4-3.6-2.2-7.9-4.8c-4.5-2.7-11.6-7.1-20.5-12.6c-3-2.2-6.3-4.3-8.8-5.5c-11.1-7-23.9-15.2-37.2-24
	c-10.2-7.7-20-15.3-21.6-16.3c-2.1-1.4-37.4-28.7-63.5-48.9c0,0,0,0-0.1-0.1l-27.9-21.6c1.5-4.4,1.9-9.1,1.2-13.8
	c-0.4-3.2-1.1-7.2-1.8-11.1c-0.5-5-1.2-9.9-2.4-13.9c-0.1-0.4-0.1-0.8-0.1-1.1c-0.1-1.4-0.7-2.3-1.4-3.1c-1-2.1-2.2-3.7-3.7-4.4
	c0,0,0-0.1,0-0.1c-0.3-3.1,2.5-5.3,0.6-28.7c-1.8-21-4.7-23.1-10.4-26.8c-1.4-1.2-2.8-2.1-4.3-2.6c-7.4-3.3-19.3-2.9-33.9-10
	c-16.4-7.9-41.6-7-59.4-7.9C70.6-2.5,51.4,6,42.4,11c-9,5.1-9,14.1-12.4,15.8c-2.2,1.1-2.8,20.9-3.8,40c0,0.2-0.1,0.3-0.1,0.4
	c0,0.1,0,0.5,0,1.1c-0.1,1-0.1,2.1-0.2,3.1l-0.1,0c-2.1-0.8-0.4-13.9-0.4-13.9h-14c0,0,0.6,6.9,0,9.4c-0.6,2.5,4.2,1.9,3.6,4.4
	c-0.6,2.5,1.7,4,2.9,5.3c1.1,1.2,4.6,3.5,7.4,4.5c-0.3,4.8-0.7,9.1-1.3,12.6c-2.8,19.7-13.2,76.5-20.5,102.7
	C0.9,206,1.4,216.2,3,225.2l-0.1,0c0,0,0,0,0,0l0,0l0,0c0,0,0,0,0,0c2.7,15.4,8.6,27.4,7.4,27.2c-2-0.3-5.6,1.7-9.6,8.4
	s8.8,46.9,10.7,51.2s95.7,21.6,111.8,19.1c16.1-2.5,33.1-1,52.4,8.9c19.3,9.9,123.3,34.3,130.5,37.1s92.7,23,110,26
	s39.3-29.4,41.1-32.9S459,340.9,457.3,336.9z"/>
</svg>
