<svg id="Layer_1" data-name="Layer 1" xmlns="http://www.w3.org/2000/svg" viewBox="0 0 475.56 404.64"><defs><style>.cls-1{fill:#fff;}.cls-2{fill:none;}</style></defs><title>1971</title><path class="cls-1" d="M300,173.18s1.6,10.17,3.39,13.57-1.69,47.3-1.69,47.3h-46.4S272.62,176.17,300,173.18Z" transform="translate(-83.42 -171.98)"/><path class="cls-1" d="M204.17,172s17.75.8,21,12.57-4.59,23.15,7,30.93,22.15,7.59,39.51,5,30.14-2,33.33,7.59,3,11.57,3,11.57l-118.34-2S201,189.54,200.18,185,204.17,172,204.17,172Z" transform="translate(-83.42 -171.98)"/><path class="cls-1" d="M182,179.23s19.46,6.36,19.71,10.8-19,45.65,7.86,45.89,112.48,0,112.48,0-1.66-4,3.57-5.23,11.18,5.2,11.65,5.33,1.43,5.84-2.14,6.08.24,70.87.24,70.87,1.43,50.17,6,54,124.83,68,142.36,73.35,27,5.4,28.32,7.64,1,5.2,0,5.78,3.26,2.21,2.52,5.14-6.3,8.95-4,11.15,33.9,9.69,34,27.88-1.17,31.69-1.17,31.69L541.58,539s-130.28,3.09-181.39-2.25-135.5-8.81-179-7.13-84.51-4-85.78-8.23-14.34-54,0-87.76,28.88-57.4,33.42-74S179.42,224.73,180,222.46s9.66-28.69,5.68-33.51A15,15,0,0,1,182,179.23Z" transform="translate(-83.42 -171.98)"/><path class="cls-2" d="M115.16,391.51s117.47,28.11,140.1,6.88,28.45-54.59,28.45-54.59" transform="translate(-83.42 -171.98)"/><path class="cls-2" d="M279.56,245.23,128.4,490.66s-.47,9.49,7.08,10.65,408,28.27,408,28.27" transform="translate(-83.42 -171.98)"/><path class="cls-2" d="M543.46,525.14s-350.82-25-376.33-28.82-18.89-10.39-19.84-14.64S283.81,245.23,283.81,245.23" transform="translate(-83.42 -171.98)"/><path class="cls-2" d="M543.46,521.67s-355-31.31-368.2-35.44-5.69-18.57-5.69-18.57l119-222.43" transform="translate(-83.42 -171.98)"/><path class="cls-2" d="M294.52,245.23S187.44,464,187.71,467.66s-3.46,11.08,21.44,13.68,334.31,34.19,334.31,34.19" transform="translate(-83.42 -171.98)"/><path class="cls-2" d="M299.44,245.23s-96.46,210.82-96.16,216-6,8.19,16.65,11.16S543.46,510,543.46,510" transform="translate(-83.42 -171.98)"/><path class="cls-2" d="M303.87,245.23S214.2,444.61,219.66,453.28s4.5,8.3,31.73,12.67,283.79,34.7,288.52,35.36l4.73.66" transform="translate(-83.42 -171.98)"/><polygon class="cls-1" points="374.26 276.19 387.26 282.23 362.89 336.29 350.36 330.95 374.26 276.19"/><polygon class="cls-1" points="318.11 262.04 330.18 267.14 303.72 329.33 291.66 324.69 318.11 262.04"/><polygon class="cls-1" points="252.91 241.16 265.9 247.19 231.79 314.25 219.72 308.91 252.91 241.16"/><polygon class="cls-1" points="65.88 192.43 65.88 204.03 143.15 198.23 143.15 187.56 65.88 192.43"/><polygon class="cls-1" points="73.41 89.77 73.41 101.45 141.69 99.67 141.69 89.77 73.41 89.77"/><path class="cls-1" d="M435.41,423.78l-32.16-14.4-1,1.4-3.71,8.94s-11,20.09-10.92,21.83-2.33,8.24,2.43,13.12,12.54,10.1,17.42,9.75,6.85.35,11.15-4.18,8.1-16.79,9.29-17.65,8.24-16.65,8.24-16.65ZM421.83,449.1c-6,12.54-6.27,10.68-11.38,12s-11.15-3.6-16.11-7.55-2.7-6.62-2.59-10.45,14.52-29.84,14.52-29.84l26.36,13.23S427.87,436.56,421.83,449.1Z" transform="translate(-83.42 -171.98)"/><path class="cls-1" d="M97,523.09a46.56,46.56,0,0,1-11.57,4.52c-6.54,1.55,4.91,42,4.91,42s16.48,8.1,67.27,6.85l50.79-1.24s3.74-30.23,24-27.74,122.15,14,122.15,14,8.11,6.85,9.35,12.46v2s186.24.86,191.1-1.74,3.89-32.69,3.89-32.69,0-6.89-17.51-5.27S98.39,514.31,97,523.09Z" transform="translate(-83.42 -171.98)"/><path class="cls-1" d="M208.42,273.43s17.49,2.05,24.07,0c2.77.45,2-2.23,3.34,3.48s.46,11.77,3.93,12.81,10.21,4.33,10.56-.87,0-37.39,0-37.39S248.49,244,244,245.4s-4.42,7.45-8.12,11.6-9.23,2.6-14.08,2.77-12.29-2.1-15.06,2S202.54,269.08,208.42,273.43Z" transform="translate(-83.42 -171.98)"/><path class="cls-1" d="M296,252.08S278.28,286,291.12,297.4c12.75,3.25,45.43,3.25,47.06,2.85s4.28-5.24,2.85-6.8,2.44-25.38,1.63-27.82,4.38-1.63,3.82-5.09-5.86-4.68-5.86-4.68Z" transform="translate(-83.42 -171.98)"/><path class="cls-1" d="M268.68,334.43s52.43-5.72,58.12-10.56,3.6-13.45,8.6-10.9,9.84,8.34,7.2,10.5,1,9.2.74,11,1.67,15.91,0,17.64,3.44,2.16,3.1,5.24S340,362.37,333,364.9s-54,18.65-58.7,15S268.68,334.43,268.68,334.43Z" transform="translate(-83.42 -171.98)"/><polygon class="cls-1" points="173.95 185.59 207.7 182.5 207.7 189.62 173.95 191.37 173.95 185.59"/><path class="cls-1" d="M313.67,337.15s5.2-.86,4,25.1c-1.9,4-11.78,6.06-25.28,3.81s-18.35-10-13.33-14S313.67,337.15,313.67,337.15Z" transform="translate(-83.42 -171.98)"/><path class="cls-1" d="M340.06,383.92l-2.35,3.39S326,411.67,325.19,414.1s-2.48,10.64-.52,13.77,13.43,11,16.3,11,9.92.78,13-2.22,11.55-19.59,12.1-20.43,6.81-16.87,6.81-16.87l1-3Zm25,26.86s-6.52,15.52-7.89,18.26-5.67,6.26-11.67,6.63-10.44-4.54-13.83-7.28-4.56-2.74-4.91-8.08,10.26-23.74,10.26-23.74l5-9.26,29.08,10.43Z" transform="translate(-83.42 -171.98)"/><path class="cls-1" d="M398.5,437.27s-11.43-4.41-10.91-8.08.79-7,8.91-3.25,30.66,13.21,32,14.52,1.31,8.12-3.41,6.29S398.5,437.27,398.5,437.27Z" transform="translate(-83.42 -171.98)"/><path class="cls-1" d="M272.05,251.65c-3.86-.14-59.64-2.37-62.29-1.26s-8.22,4.26-9.2,7.81-1.81,16.31,0,19.52a16,16,0,0,0,12.13,8.37c6.7.83,59.82,3.76,60.24,3.34s3.41-2.17,3.66-4.5.53-29.66.53-29.66A5.71,5.71,0,0,0,272.05,251.65Zm-2.33,34.86c-1.53.41-51.17-2.51-56.89-3.63s-8.64-4.6-9.34-7.53.14-16.31,5.44-20.74,14.64-1.71,14.64-1.71,38.48,1.26,45.6,1.4,5,2,5,2-.26,19.3.29,24.74S271.26,286.09,269.72,286.51Z" transform="translate(-83.42 -171.98)"/><path class="cls-1" d="M272.05,256.79s8.12-2.1,8.91,0-1.4,28.56-1.4,28.56l-7.51-1.05Z" transform="translate(-83.42 -171.98)"/><polygon class="cls-1" points="165.29 76.16 178.34 76.86 175.34 120.97 163.35 120.97 165.29 76.16"/><polygon class="cls-1" points="196.48 97.33 225.71 100.95 224.16 107.14 196.48 104.2 196.48 98.56 196.48 97.33"/><path class="cls-1" d="M299.65,272.41s15.93-7.79,25.62-8.66,7.79-.69,6.93,24.41c-1.39,3.54-.38,11.25-24.25-2.94C299.65,278.64,294.77,274.63,299.65,272.41Z" transform="translate(-83.42 -171.98)"/><circle class="cls-1" cx="134.61" cy="230.28" r="27.06"/><circle class="cls-1" cx="134.61" cy="228.94" r="10.95"/><path class="cls-1" d="M255,348.58s-1.59-5.19-5.19-4.76-36.76,2.25-39.21,3.36-9.94,6.16-10.38,12.36-.14,16.14,2.17,18.88,6.63,6.8,16.57,7.51S254.27,382,254.27,382s3.7-.35,4.14-6S255,348.58,255,348.58ZM252.62,379c-1.31,1-34.57,4.18-37.31,3.89s-9.51-4.18-10.67-7.89-1.29-15.89,1.73-21.65,18-5,18-5,21.48-2.45,25.66-2,2,4,2,4,2,18.16,2.21,22.05S253.94,378,252.62,379Z" transform="translate(-83.42 -171.98)"/><polygon class="cls-1" points="168.64 204.03 178.34 204.03 174.74 175.2 163.35 177.04 168.64 204.03"/><path class="cls-1" d="M333.62,414.78s-5.5-1.31-6.29-4.72-1.31-9.08,3.14-7.55,35.11,18.56,35.11,18.56,2.89,6.55-4.71,4.45-14.41-3.67-14.41-3.67Z" transform="translate(-83.42 -171.98)"/><polygon class="cls-1" points="257.21 203.01 252.44 213.77 289.32 230.53 295.14 219.24 257.21 203.01"/><path class="cls-1" d="M407.47,402.51s4.86-4.5,6.13-4.1,23.7,9,24.24,11,.81,7.17,0,8.65-31.71-13.7-31.71-13.7Z" transform="translate(-83.42 -171.98)"/><polygon class="cls-1" points="319.84 230.53 315.07 241.16 352.83 259.47 358.12 247.29 320.21 228.94 319.84 230.53"/><path class="cls-1" d="M358.84,375.44s3-6.81,6.26-8,6.65-1.24,5.09,4-3.65,6.8-2.61,7.32,6.78,2.74,7.5,4.3-.59,5.35-.59,5.35l-28-13,3.64-5.29Z" transform="translate(-83.42 -171.98)"/><path class="cls-1" d="M462.64,467.66s6.24,3.07,11.8,2.31,11.32-3.46,12.18-10.08-2.39-5.27-2.39-5.27-.1,9.59-5.47,10.84-10.65.74-14.1-1-10.36-4.09-10.75-7.62-2.59-12,0-12.66-2.66-2.39-2.66-2.39-4.43,8.44-3.95,12.18,1.24,6.52,3.64,8.15S462.64,467.66,462.64,467.66Z" transform="translate(-83.42 -171.98)"/><path class="cls-1" d="M457.18,437.27l4-3.75s10.36,6,13.05,1.15,3.36-6.33,3.36-6.33l7.09,3.11a5.33,5.33,0,0,0-2.11,6.48c1.44,4.51,6,4,7.87,7.77s-1,7.58-1,7.58l-33.86-13.43Z" transform="translate(-83.42 -171.98)"/><polygon class="cls-1" points="364.3 276.19 403.29 291.05 408.05 280.99 370.3 265.29 364.3 276.19"/><circle class="cls-1" cx="225.71" cy="174.15" r="5.03"/><circle class="cls-1" cx="242.81" cy="97.33" r="5.03"/><circle class="cls-1" cx="242.81" cy="114.57" r="5.03"/><circle class="cls-1" cx="160.52" cy="80.1" r="5.03"/><circle class="cls-1" cx="158.32" cy="111.54" r="5.03"/><circle class="cls-1" cx="225.71" cy="189.62" r="5.03"/><circle class="cls-1" cx="104.28" cy="277.47" r="6.48"/><circle class="cls-1" cx="67.74" cy="195.01" r="9.06"/><path class="cls-1" d="M183.93,209s.4,30.26,10.31,33.38S331.75,245.2,333,245.23s2.21-3.13,2.21-3.13,5.65-3.28,2.14-6.08-8.18-7.61-11.65-5.33-3.57,5.23-3.57,5.23-114.2,3.62-119.54-1.37-8.53-17.36-4.67-30.94,3.07-14.65.54-17.3S182,179.23,182,179.23s5.42,11.11,4.47,17S183.93,209,183.93,209Z" transform="translate(-83.42 -171.98)"/><path class="cls-1" d="M213,371.23c.19,1.13,1.63,3.36,6.1,3.76s13.55-5.9,15.42-3.76,4,5.75,4,7.76,12.88,0,12.88,0l-3.11-31.81-12.45,1a25.7,25.7,0,0,0-1.06,6.32c-.29,4.2.43,6.37-3.46,5.07s-10.81-3-12.83-2.6-5.24,1.72-5.52,2.6S213,371.23,213,371.23Z" transform="translate(-83.42 -171.98)"/><polygon class="cls-1" points="152.41 169.49 164.23 168.78 168.64 213.95 156.64 213.95 152.41 169.49"/></svg>