<?xml version="1.0" encoding="utf-8"?>
<!-- Generator: Adobe Illustrator 24.0.3, SVG Export Plug-In . SVG Version: 6.00 Build 0)  -->
<svg version="1.1" id="Layer_1" xmlns="http://www.w3.org/2000/svg" xmlns:xlink="http://www.w3.org/1999/xlink" x="0px" y="0px"
	 viewBox="0 0 475.6 404.6" style="enable-background:new 0 0 475.6 404.6;" xml:space="preserve">
<style type="text/css">
	.st0{fill:#FFFFFF;}
</style>
<title>1971</title>
<path class="st0" d="M475.5,369.5c0,0,0-6.7-16.8-5.3l1.3-6.6c0,0,1.3-13.5,1.2-31.7s-31.7-25.7-34-27.9c-2.3-2.2,3.3-8.2,4-11.2
	c0.7-2.9-3.5-4.6-2.5-5.1c1-0.6,1.3-3.5,0-5.8c-1.3-2.2-10.7-2.3-28-7.5c-0.6-0.6-1.1-1.4-1.5-2.5c-0.9-2.4-0.1-5.1,2.1-6.5
	l-7.1-3.1c0,0-0.7,1.5-3.4,6.3c-0.3,0.5-0.7,1-1.2,1.2c-8.1-3.7-19.4-9.2-32-15.6l0.4-1l-3.5-1.7c0.6-1.9,0.3-6.3-0.2-8.2
	c-0.5-2-23-10.6-24.2-11c-1.3-0.4-6.1,4.1-6.1,4.1l-0.1,0.2l-3.7-1.8l0,0c-10-5.3-19.8-10.4-28.5-15.1c0.2-1,0.2-2.1-0.1-2.8
	c-0.7-1.6-6.5-3.8-7.5-4.3c-1-0.5,1-2.1,2.6-7.3s-1.8-5.2-5.1-4s-6.3,8-6.3,8l-8.7-5.3l-1,1.5c-4.4-2.5-7.1-4.1-7.7-4.6
	c-0.7-0.6-1.3-2.2-1.8-4.5c3.9-1.5,6.7-3.1,6.9-5.1c0.3-3.1-4.8-3.5-3.1-5.2c1.7-1.7-0.3-15.8,0-17.6s-3.4-8.8-0.7-11
	c2.6-2.2-2.2-7.9-7.2-10.5c0,0,0,0,0,0c0-0.2-0.3-5.2-0.6-12.5c1.9,0,3.1-0.1,3.4-0.2c1.6-0.4,4.3-5.2,2.8-6.8s2.4-25.4,1.6-27.8
	s4.4-1.6,3.8-5.1c-0.6-3.5-5.9-4.7-5.9-4.7l-7-0.6c0.1-4.9,0.3-8.8,0.6-11c0.6-0.9,1-2.1,1-2.1s0,0,0,0c1.2-0.1,1.8-0.9,2.2-1.8
	c1.1-1.2,1.8-2.8-0.1-4.3c-3.5-2.8-8.2-7.6-11.6-5.3c0,0-0.1,0-0.1,0c-5.2,1.2-3.6,5.2-3.6,5.2s-5.7,0-14.7,0
	c-0.4-1.8-1.2-4.3-2.3-7.9c-0.6-1.7-1.4-3.1-2.6-4.2c0.9-13.2,2.2-34.8,0.9-37.1c-1.8-3.4-3.4-13.6-3.4-13.6
	c-19.3,2.1-33.7,31.6-40.4,48.7c-10.7,0.7-18.8-0.6-27.4-6.4c-11.6-7.8-3.8-19.2-7-30.9c-3.2-11.8-21-12.6-21-12.6s-4.8,8.5-4,13
	c0.1,0.5,0,1.4-0.1,2.6c-0.4-0.3-0.8-0.7-1.3-1c-0.1-0.1-0.2-0.2-0.3-0.3c-2.5-2.6-16.5-7.1-16.5-7.1c0,3.6,1.3,7,3.7,9.7
	c0.7,2.6,1.1,5.3,0.8,7.3c-0.9,5.9-2.5,12.8-2.5,12.8s0,0,0,0.1c-1.7,6.6-3.7,12.4-3.9,13.4c-0.2,0.8-6.7,17.6-15,39.3h-8.2v11.7
	l3.8-0.1c-13.4,35-29.2,76.9-31.8,86.3c-4.5,16.6-19.1,40.2-33.4,74c-14.3,33.8-1.3,83.5,0,87.8c0.1,0.5,0.8,0.9,1.8,1.4
	c-0.1,0.1-0.2,0.2-0.2,0.3c-3.6,2-7.5,3.5-11.6,4.5c-6.5,1.5,4.9,42,4.9,42s16.5,8.1,67.3,6.8l50.8-1.2c0,0,3.7-30.2,24-27.7
	c20.3,2.5,122.2,14,122.2,14s8.1,6.8,9.3,12.5v2c0,0,186.2,0.9,191.1-1.7S475.5,369.5,475.5,369.5z"/>
</svg>
